<svg xmlns="http://www.w3.org/2000/svg" xmlns:xlink="http://www.w3.org/1999/xlink" width="85" height="85" viewBox="0 0 85 85"><defs><clipPath id="a"><rect width="49.667" height="54.444" fill="#fff"/></clipPath></defs><g transform="translate(-180 -4048)"><path d="M208.02,46.5A42.5,42.5,0,1,1,165.52,4a42.5,42.5,0,0,1,42.5,42.5" transform="translate(56.98 4044)" fill="#13c6cc"/><g transform="translate(197.667 4063.278)"><g clip-path="url(#a)"><path d="M49.657,53.459C49.588,53,47.889,42.152,41.4,39.109c-3.27-1.533-7.478-3.332-8.569-3.8A4.984,4.984,0,0,0,30.2,33.341V32.067a10.917,10.917,0,0,0,5.312-7.378,4.541,4.541,0,0,0,2.578-7.683,3.979,3.979,0,0,0,.756-2.335v-4.6a16.8,16.8,0,0,0,1.532-6.587,2.343,2.343,0,0,0-.876-1.926,2.287,2.287,0,0,0-2.047-.426c-1.941.528-5.223.04-8.4-.432a49.066,49.066,0,0,0-6.79-.7C18.041,0,16,1.684,15.032,3.1a6.366,6.366,0,0,0-1,2.425,4,4,0,0,0-3.219,3.915v5.235a3.98,3.98,0,0,0,.756,2.335,4.541,4.541,0,0,0,2.578,7.683,10.918,10.918,0,0,0,5.312,7.378v1.273a4.985,4.985,0,0,0-2.624,1.972c-1.091.464-5.3,2.263-8.569,3.8C1.777,42.152.079,53,.01,53.459a.857.857,0,1,0,1.7.255c.016-.1,1.622-10.4,7.291-13.053,2.908-1.363,6.571-2.942,8.079-3.586l1.981,3.443a1.714,1.714,0,0,0,2.1.746l.539,1.59-1.409,10.62a.858.858,0,0,0,.737.963.89.89,0,0,0,.114.008.858.858,0,0,0,.849-.745l1.337-10.074h3.02L27.68,53.7a.858.858,0,0,0,.849.745.892.892,0,0,0,.114-.008.857.857,0,0,0,.737-.963l-1.409-10.62.539-1.59a1.715,1.715,0,0,0,2.1-.746l1.981-3.443c1.508.644,5.17,2.222,8.079,3.586,5.659,2.653,7.276,12.95,7.291,13.053a.857.857,0,1,0,1.7-.255M36.682,16.033a4.491,4.491,0,0,0-.965-.3V13.69a8.117,8.117,0,0,0,1.418-1.161v2.143a2.269,2.269,0,0,1-.453,1.361m-.969,6.857q0-.143,0-.287V17.5a2.828,2.828,0,0,1,0,5.39M12.531,9.437a2.278,2.278,0,0,1,2.275-2.275.853.853,0,0,0,.857-.852c0-.188.135-4.595,6.607-4.595a47.917,47.917,0,0,1,6.538.685c3.5.521,6.812,1.013,9.1.39a.582.582,0,0,1,.526.111.615.615,0,0,1,.233.512c-.15,3.461-1.287,9.352-7.214,9.927A24.08,24.08,0,0,1,19.9,11.807a2.322,2.322,0,0,0-2.756.753,9.712,9.712,0,0,1-2.122,2.214,2.347,2.347,0,0,0-.827.921,4.5,4.5,0,0,0-1.212.339,2.269,2.269,0,0,1-.453-1.361Zm-.552,10.758a2.83,2.83,0,0,1,1.97-2.695v5.1q0,.144,0,.287a2.832,2.832,0,0,1-1.974-2.7M15.664,22.6V16.735a.621.621,0,0,1,.29-.521,10.994,10.994,0,0,0,2.563-2.624.614.614,0,0,1,.491-.247.6.6,0,0,1,.231.047A25.83,25.83,0,0,0,31.62,15.046,9.953,9.953,0,0,0,34,14.529V22.6a9.169,9.169,0,1,1-18.339,0m9.169,10.884a10.832,10.832,0,0,0,3.656-.633v1.128a.617.617,0,0,1-.349.554l-3.307,1.578-3.307-1.578a.617.617,0,0,1-.35-.554V32.855a10.833,10.833,0,0,0,3.656.633m1.647,8.423H23.187l-.6-1.757L24.833,38.2l2.243,1.952Zm-5.937-2.248-2.1-3.654a3.315,3.315,0,0,1,1.294-.937,2.333,2.333,0,0,0,1.053,1.013l2.5,1.192-2.256,1.964-.007.006Zm8.581,0-.479-.417,0,0-2.258-1.965,2.5-1.192a2.333,2.333,0,0,0,1.053-1.013,3.315,3.315,0,0,1,1.294.937Z" transform="translate(0)" fill="#fff"/></g></g></g></svg>