<svg xmlns="http://www.w3.org/2000/svg" xmlns:xlink="http://www.w3.org/1999/xlink" width="85" height="85" viewBox="0 0 85 85"><defs><clipPath id="a"><rect width="47.044" height="54.862" fill="#fff"/></clipPath></defs><g transform="translate(-180 -3952.327)"><path d="M208.02,46.5A42.5,42.5,0,1,1,165.52,4a42.5,42.5,0,0,1,42.5,42.5" transform="translate(56.98 3948.327)" fill="#0273bc"/><g transform="translate(198.978 3967.396)"><g clip-path="url(#a)"><path d="M47.028,53.832a59.04,59.04,0,0,0-1.687-6.358c-1.448-4.4-3.067-7.2-4.814-8.308,2.475-3.4,2.263-10.734,1.532-14.189a12.438,12.438,0,0,0-1.846-4.036,12.4,12.4,0,0,1-2.3-8.165,11.206,11.206,0,0,0-3.135-8.37A14.733,14.733,0,0,0,24.062,0H22.874A14.733,14.733,0,0,0,12.162,4.406a11.206,11.206,0,0,0-3.135,8.37,12.4,12.4,0,0,1-2.3,8.165,12.44,12.44,0,0,0-1.846,4.036c-.734,3.472-.945,10.864,1.568,14.238C4.726,40.356,3.132,43.131,1.7,47.474A59.009,59.009,0,0,0,.016,53.832a.863.863,0,1,0,1.695.332c.632-3.217,2.911-11.931,5.832-13.6a50.481,50.481,0,0,1,6.8-3.091l-1.71,2.966a2.542,2.542,0,0,0,.747,3.337l.115.08a.8.8,0,0,1,.22,1.084A2.527,2.527,0,0,0,14.833,48.6l7.825,3.458V54a.864.864,0,1,0,1.727,0V52.059L32.211,48.6a2.526,2.526,0,0,0,1.115-3.661l-.409-.647.744-.516a2.542,2.542,0,0,0,.748-3.337L32.7,37.474a50.474,50.474,0,0,1,6.8,3.091c2.921,1.669,5.2,10.383,5.832,13.6a.864.864,0,0,0,1.695-.332m-31.5-6.81a.8.8,0,0,1-.353-1.159,2.521,2.521,0,0,0-.694-3.425l-.115-.08a.8.8,0,0,1-.237-1.056l2.052-3.559L21.773,49.78Zm7.991-15.033a9.251,9.251,0,0,1-9.24-9.24V18.66a20.117,20.117,0,0,0,11.085-3.392A18.953,18.953,0,0,0,28.5,12.642a10.628,10.628,0,0,0,4.265,4.21v5.9a9.251,9.251,0,0,1-9.24,9.24m-3.685,1.833v-.744a10.965,10.965,0,0,0,7.37,0v.744a2.594,2.594,0,0,0,1.926,2.5l.428.114-2.725,5.868H20.208l-2.725-5.868.428-.114a2.594,2.594,0,0,0,1.926-2.5m3.685,15.624-2.512-5.41h5.024Zm9.39-8.144a.8.8,0,0,1-.237,1.056l-1.423.988a.864.864,0,0,0-.237,1.171l.851,1.346a.8.8,0,0,1-.353,1.158L25.271,49.78,30.86,37.743ZM31.045,35.05l-.05-.015-1.419-.377a.865.865,0,0,1-.642-.835V32.285a10.974,10.974,0,0,0,5.555-9.536V16.3a.863.863,0,0,0-.527-.8A9.3,9.3,0,0,1,29.5,10.784a.864.864,0,0,0-1.505-.2,15.594,15.594,0,0,1-3.653,3.292,18.258,18.258,0,0,1-10.9,3.049.864.864,0,0,0-.889.863v4.959a10.974,10.974,0,0,0,5.555,9.536v1.538a.865.865,0,0,1-.642.835l-1.419.377L16,35.05a62.394,62.394,0,0,0-8.023,3.317c-2.042-2.409-2.217-9.211-1.409-13.033a10.961,10.961,0,0,1,1.628-3.49,14.025,14.025,0,0,0,2.557-9.162,9.37,9.37,0,0,1,2.664-7.088,13.179,13.179,0,0,1,9.458-3.867h1.188A13.18,13.18,0,0,1,33.52,5.594a9.37,9.37,0,0,1,2.664,7.088,14.025,14.025,0,0,0,2.557,9.162,10.963,10.963,0,0,1,1.628,3.49c.8,3.8.635,10.552-1.377,12.994a62.571,62.571,0,0,0-7.947-3.278" transform="translate(0)" fill="#fff"/></g></g></g></svg>