<svg xmlns="http://www.w3.org/2000/svg" xmlns:xlink="http://www.w3.org/1999/xlink" width="185" height="185" viewBox="0 0 185 185"><defs><clipPath id="a"><rect width="93" height="93" transform="translate(0 -0.247)" fill="#1b3f5e"/></clipPath></defs><g transform="translate(-398 -459)"><circle cx="92.5" cy="92.5" r="92.5" transform="translate(398 459)" fill="#d2e1f1"/><g transform="translate(423 499)"><g transform="translate(14 0.247)" clip-path="url(#a)"><path d="M30.918,137.429a7.8,7.8,0,0,1-5.465-2.265L2.265,111.976a7.725,7.725,0,0,1,0-10.929L37.047,66.265A7.8,7.8,0,0,1,42.512,64H65.7a5.851,5.851,0,0,1,1.434.174,7.661,7.661,0,0,1,6.3,7.555V94.918a7.8,7.8,0,0,1-2.265,5.465L36.382,135.165A7.8,7.8,0,0,1,30.918,137.429ZM42.512,67.865A3.9,3.9,0,0,0,39.779,69L5,103.779a3.863,3.863,0,0,0,0,5.465l23.188,23.188a3.988,3.988,0,0,0,5.461,0L68.428,97.65a3.887,3.887,0,0,0,1.136-2.732V71.729a3.825,3.825,0,0,0-3.2-3.772,2.622,2.622,0,0,0-.669-.093Z" transform="translate(0 -52.406)" fill="#1b3f5e"/><path d="M276.908,145.23H242.667a8.146,8.146,0,0,1-5.635-2.245,7.693,7.693,0,0,1-2.365-5.484V124.438a1.946,1.946,0,0,1,.564-1.368l25.353-25.353a3.872,3.872,0,0,0,1.136-2.728V71.8a3.825,3.825,0,0,0-3.2-3.772,1.933,1.933,0,0,1-.058-3.811,7.941,7.941,0,0,1,6.956,2.1l17.113,16.417a7.7,7.7,0,0,1,2.373,5.492V137.5a7.693,7.693,0,0,1-2.365,5.484,8.146,8.146,0,0,1-5.635,2.245m-38.377-19.992V137.5a3.807,3.807,0,0,0,1.19,2.709,4.252,4.252,0,0,0,2.945,1.156h34.241a4.259,4.259,0,0,0,2.945-1.156,3.808,3.808,0,0,0,1.19-2.709V88.225a3.808,3.808,0,0,0-1.19-2.709L265.585,71.827V94.989a7.794,7.794,0,0,1-2.265,5.465Z" transform="translate(-192.155 -52.477)" fill="#1b3f5e"/><path d="M304.464,118.261a5.8,5.8,0,1,1,5.8-5.8,5.8,5.8,0,0,1-5.8,5.8m0-7.729a1.932,1.932,0,1,0,1.932,1.932,1.933,1.933,0,0,0-1.932-1.932" transform="translate(-244.561 -87.343)" fill="#1b3f5e"/><path d="M345.121,27.053a1.933,1.933,0,0,1-1.932-1.932V13.526a9.662,9.662,0,1,0-19.323,0v7.729a1.932,1.932,0,0,1-3.865,0V13.526a13.527,13.527,0,0,1,27.053,0V25.12a1.933,1.933,0,0,1-1.932,1.932" transform="translate(-262.029)" fill="#1b3f5e"/></g></g></g></svg>