<svg xmlns="http://www.w3.org/2000/svg" xmlns:xlink="http://www.w3.org/1999/xlink" width="86" height="86" viewBox="0 0 86 86"><defs><clipPath id="a"><rect width="50.195" height="50.195" transform="translate(0 0)" fill="#fff"/></clipPath></defs><g transform="translate(-322 -2175)"><circle cx="43" cy="43" r="43" transform="translate(322 2175)" fill="#13c6cc"/><g transform="translate(344.479 2188.755)"><g transform="translate(0.325 -0.497)" clip-path="url(#a)"><path d="M102.38,171.706a.981.981,0,1,0,0,1.388.982.982,0,0,0,0-1.388" transform="translate(-91.037 -154.438)" fill="#fff"/><path d="M24.854,397.457a3.436,3.436,0,0,0-2.769-5.471H5.4a3.433,3.433,0,0,0-2.767,5.469A4.912,4.912,0,0,0,0,401.8v.982a.982.982,0,0,0,.982.982H26.5a.982.982,0,0,0,.982-.982V401.8a4.912,4.912,0,0,0-2.63-4.345m-20.5-3.077a1.463,1.463,0,0,1,1.041-.431H22.085a1.472,1.472,0,1,1,0,2.945H5.4a1.473,1.473,0,0,1-1.041-2.514M1.963,401.8a2.948,2.948,0,0,1,2.945-2.945H22.576a2.948,2.948,0,0,1,2.945,2.945Z" transform="translate(-0.217 -353.354)" fill="#fff"/><path d="M49.363,41.239a6.181,6.181,0,0,0-1.182-1.358l-4.586-4a.974.974,0,0,0-.391-.341L40.43,33.121l-12.838-11.2a2.939,2.939,0,0,0-.862-4.688l1.188-1.188a3.929,3.929,0,0,0,3.79-1.015,3.926,3.926,0,0,0,0-5.553L23.379,1.15a3.925,3.925,0,0,0-6.567,3.79L4.961,16.791a3.951,3.951,0,0,0-1.016-.133,3.926,3.926,0,0,0-2.776,6.7L9.5,31.689a3.925,3.925,0,0,0,6.568-3.79l1.185-1.185a2.945,2.945,0,0,0,4.69.861L35.614,43.284a.986.986,0,0,0,.133.166c.018.018.036.034.055.049l4.075,4.682c.1.12.21.237.322.35a5.838,5.838,0,0,0,4.149,1.726,6.025,6.025,0,0,0,.826-.057,5.94,5.94,0,0,0,4.382-3.034,5.808,5.808,0,0,0-.194-5.927M19.214,2.538a1.963,1.963,0,0,1,2.776,0l8.329,8.329a1.963,1.963,0,0,1-2.776,2.777L19.215,5.315h0a1.965,1.965,0,0,1,0-2.776M13.662,30.3a1.966,1.966,0,0,1-2.777,0L2.557,21.972A1.963,1.963,0,0,1,5.332,19.2l8.33,8.33a1.965,1.965,0,0,1,0,2.776M17.8,23.392l-2.745,2.745L6.721,17.807,17.826,6.7l8.329,8.329-2.75,2.75-.027.026-5.55,5.55-.034.035m3.5,2.048-.006.006-.691.691a.982.982,0,0,1-1.4-1.376l5.576-5.576a.982.982,0,0,1,1.665.705.973.973,0,0,1-.288.694l-.687.687-.014.014Zm2.033.744L26.2,23.315,38.348,33.909l-4.432,4.432ZM35.208,39.826,39.831,35.2,41.314,36.5,36.5,41.311Zm12.636,6.381a3.993,3.993,0,0,1-2.938,2.048,3.9,3.9,0,0,1-3.318-1.112c-.075-.075-.148-.154-.215-.234l-.01-.011-3.571-4.1L42.8,37.79l4.1,3.575.009.008a4.226,4.226,0,0,1,.81.932,3.876,3.876,0,0,1,.13,3.9" transform="translate(-0.236 0.155)" fill="#fff"/><path d="M134.826,100.994a.982.982,0,0,0-1.388,0l-4.165,4.165a.982.982,0,1,0,1.388,1.388l4.165-4.165a.982.982,0,0,0,0-1.388" transform="translate(-116.542 -90.666)" fill="#fff"/></g></g></g></svg>