<svg xmlns="http://www.w3.org/2000/svg" xmlns:xlink="http://www.w3.org/1999/xlink" width="157" height="157" viewBox="0 0 157 157"><defs><clipPath id="a"><rect width="69.809" height="66.397" fill="#fff"/></clipPath></defs><g transform="translate(-390 -1111)"><rect width="157" height="157" rx="78.5" transform="translate(390 1111)" fill="#13c6cc"/><g transform="translate(433.596 1155)"><g clip-path="url(#a)"><path d="M376.766,312.935a1.023,1.023,0,0,0-1.023,1.024v4.005a3.174,3.174,0,1,0,2.424,5.853l3.4,3.4a1.024,1.024,0,0,0,1.448-1.448l-3.4-3.4a3.172,3.172,0,0,0-1.825-4.405v-4.005A1.024,1.024,0,0,0,376.766,312.935Zm1.128,8.033a1.128,1.128,0,1,1-1.128-1.128,1.129,1.129,0,0,1,1.128,1.128" transform="translate(-322.653 -270.267)" fill="#fff"/><path d="M161.153,153.98a1.023,1.023,0,0,0-1.329.573l-3.507,8.817a1.024,1.024,0,1,0,1.9.756l3.507-8.817A1.024,1.024,0,0,0,161.153,153.98Z" transform="translate(-134.941 -132.923)" fill="#fff"/><path d="M211.472,164.689a1.023,1.023,0,0,0,1.349-.525l3.876-8.817a1.024,1.024,0,0,0-.937-1.435h-4.85a1.024,1.024,0,1,0,0,2.047h3.282l-3.245,7.381A1.023,1.023,0,0,0,211.472,164.689Z" transform="translate(-181.269 -132.927)" fill="#fff"/><path d="M92.9,162a1.024,1.024,0,0,0,1.024-1.024v-1.879h.553a1.024,1.024,0,1,0,0-2.047h-.553v-4.637a1.434,1.434,0,0,0-2.645-.768c-1.266,2-3.6,5.86-3.625,5.9a1.024,1.024,0,0,0,.876,1.553h3.346v1.879A1.023,1.023,0,0,0,92.9,162m-2.551-4.949c.447-.734,1-1.636,1.527-2.493v2.493Z" transform="translate(-75.578 -130.39)" fill="#fff"/><path d="M41.583,156.818c-1.4,1.995-2.229,3.086-2.677,3.672-.558.73-.812,1.063-.638,1.629a1.063,1.063,0,0,0,.692.7,7.371,7.371,0,0,0,1.987.089c.672,0,1.588-.007,2.842-.022a1.024,1.024,0,0,0-.013-2.047h-.013c-.872.011-1.8.018-2.57.02.488-.653,1.161-1.574,2.066-2.867a6.725,6.725,0,0,0,1.1-2.27.981.981,0,0,0,.018-.1l.043-.341a.98.98,0,0,0,.008-.13,3.28,3.28,0,0,0-6.5-.635,1.024,1.024,0,0,0,2.009.395,1.233,1.233,0,0,1,2.44.185l-.027.211a4.862,4.862,0,0,1-.768,1.512" transform="translate(-32.74 -131.164)" fill="#fff"/><path d="M56.5,257.328a1.926,1.926,0,0,0-1.924-1.924H50.086a1.926,1.926,0,0,0-1.924,1.924v4.493a1.926,1.926,0,0,0,1.924,1.924h4.493a1.926,1.926,0,0,0,1.924-1.924Zm-2.047,4.37H50.209v-4.247h4.247V261.7Z" transform="translate(-41.595 -220.581)" fill="#fff"/><path d="M135.053,257.328a1.926,1.926,0,0,0-1.924-1.924h-4.493a1.926,1.926,0,0,0-1.924,1.924v4.493a1.926,1.926,0,0,0,1.924,1.924h4.493a1.926,1.926,0,0,0,1.924-1.924Zm-2.047,4.37h-4.247v-4.247h4.247Z" transform="translate(-109.435 -220.581)" fill="#fff"/><path d="M213.6,257.328a1.926,1.926,0,0,0-1.924-1.924h-4.493a1.926,1.926,0,0,0-1.924,1.924v4.493a1.926,1.926,0,0,0,1.924,1.924h4.493a1.926,1.926,0,0,0,1.924-1.924Zm-2.047,4.37h-4.247v-4.247h4.247Z" transform="translate(-177.275 -220.581)" fill="#fff"/><path d="M275.452,175.31v-4.493a1.926,1.926,0,0,0-1.924-1.924h-4.493a1.926,1.926,0,0,0-1.924,1.924v4.493a1.926,1.926,0,0,0,1.924,1.924h4.493A1.926,1.926,0,0,0,275.452,175.31Zm-2.047-.123h-4.247V170.94H273.4Z" transform="translate(-230.691 -145.865)" fill="#fff"/><path d="M347.135,168.894a1.926,1.926,0,0,0-1.924,1.924v4.493a1.926,1.926,0,0,0,1.924,1.924h4.493a1.926,1.926,0,0,0,1.924-1.924v-4.493a1.926,1.926,0,0,0-1.924-1.924Zm4.37,6.294h-4.247v-4.247H351.5Z" transform="translate(-298.143 -145.866)" fill="#fff"/><path d="M50.086,337.681h4.493a1.926,1.926,0,0,0,1.924-1.924v-4.493a1.926,1.926,0,0,0-1.924-1.924H50.086a1.926,1.926,0,0,0-1.924,1.924v4.493a1.926,1.926,0,0,0,1.924,1.924m.123-6.294h4.247v4.247H50.209Z" transform="translate(-41.595 -284.436)" fill="#fff"/><path d="M128.636,337.681h4.493a1.926,1.926,0,0,0,1.924-1.924v-4.493a1.926,1.926,0,0,0-1.924-1.924h-4.493a1.926,1.926,0,0,0-1.924,1.924v4.493A1.926,1.926,0,0,0,128.636,337.681Zm.123-6.294h4.247v4.247h-4.247Z" transform="translate(-109.435 -284.436)" fill="#fff"/><path d="M211.679,329.34h-4.493a1.926,1.926,0,0,0-1.924,1.924v4.493a1.926,1.926,0,0,0,1.924,1.924h4.493a1.926,1.926,0,0,0,1.924-1.924v-4.493A1.926,1.926,0,0,0,211.679,329.34Zm-.123,6.294h-4.247v-4.247h4.247Z" transform="translate(-177.275 -284.436)" fill="#fff"/><path d="M36.441,318.758H7.074a5.032,5.032,0,0,1-5.027-5.027v-8.464a1.024,1.024,0,0,0-2.047,0v8.464a7.082,7.082,0,0,0,7.074,7.074H36.441a1.024,1.024,0,0,0,0-2.047" transform="translate(0 -262.761)" fill="#fff"/><path d="M1.024,39.168a1.024,1.024,0,0,0,1.024-1.024V17.61H48.092a1.024,1.024,0,1,0,0-2.047H2.047V12.169A5.032,5.032,0,0,1,7.074,7.142H14.2V9.324a2.864,2.864,0,1,0,5.728,0V7.142H40.485V9.324a2.864,2.864,0,1,0,5.728,0V7.142h7.127a5.032,5.032,0,0,1,5.027,5.027v3.395H52.454a1.024,1.024,0,0,0,0,2.047h5.912V32.689a1.024,1.024,0,0,0,2.047,0V12.169a7.082,7.082,0,0,0-7.074-7.074H46.212V2.864a2.864,2.864,0,1,0-5.728,0V5.095H19.929V2.864a2.864,2.864,0,1,0-5.728,0V5.095H7.074A7.082,7.082,0,0,0,0,12.169V38.144a1.024,1.024,0,0,0,1.024,1.024m41.508-36.3a.817.817,0,1,1,1.633,0V9.325a.817.817,0,1,1-1.633,0Zm-26.284,0a.817.817,0,1,1,1.634,0V9.325a.817.817,0,1,1-1.634,0Z" fill="#fff"/><path d="M312.59,268.278a1.024,1.024,0,1,0-1.975.54,13.639,13.639,0,0,1,.444,2.586h-1.621a1.024,1.024,0,0,0,0,2.047h1.622a13.592,13.592,0,0,1-3.268,7.873l-1.142-1.142a1.024,1.024,0,0,0-1.448,1.447l1.142,1.142a13.592,13.592,0,0,1-7.873,3.268v-1.622a1.024,1.024,0,1,0-2.047,0v1.622a13.592,13.592,0,0,1-7.873-3.268l1.142-1.142a1.024,1.024,0,0,0-1.448-1.448l-1.142,1.142a13.593,13.593,0,0,1-3.268-7.872h1.622a1.024,1.024,0,0,0,0-2.047h-1.622a13.593,13.593,0,0,1,3.268-7.873l1.142,1.142a1.024,1.024,0,1,0,1.447-1.448l-1.142-1.142a13.592,13.592,0,0,1,7.873-3.268v1.622a1.024,1.024,0,1,0,2.047,0v-1.621a13.568,13.568,0,0,1,7.88,3.259l-1.15,1.15a1.024,1.024,0,0,0,1.448,1.448l1.147-1.147a13.861,13.861,0,0,1,1.174,1.581,1.023,1.023,0,0,0,1.727-1.1,15.646,15.646,0,1,0,1.892,4.27Z" transform="translate(-243.336 -221.727)" fill="#fff"/></g></g></g></svg>