<svg xmlns="http://www.w3.org/2000/svg" xmlns:xlink="http://www.w3.org/1999/xlink" width="157" height="157" viewBox="0 0 157 157"><defs><clipPath id="a"><rect width="64.789" height="76.341" fill="#fff"/></clipPath></defs><g transform="translate(16652 10613)"><rect width="157" height="157" rx="78.5" transform="translate(-16652 -10613)" fill="#13c6cc"/><g transform="translate(-16606.068 -10568.875)" clip-path="url(#a)"><path d="M96.016,54.3a1.117,1.117,0,0,0-1.562,1.6,21.828,21.828,0,0,1,6.615,15.53A22.211,22.211,0,0,1,79.089,93.577a21.872,21.872,0,0,1-13.58-4.712,1.117,1.117,0,0,0,.821-1.077v-2.2c1.408.126,3.41.406,4.288,1.081a4.116,4.116,0,0,0,2.487.852l15.254.009c2.7-.252,4.552-3.036,2.979-5.463a3.652,3.652,0,0,0,.927-4.934,3.648,3.648,0,0,0,.814-4.842,3.569,3.569,0,0,0-2.1-6.393l-9.565-.006a17.7,17.7,0,0,0-.4-10.239c-1.064-3.494-6.562-2.62-6.37,1.127.206,4.01-2.2,5.595-5.245,7.6a37.116,37.116,0,0,0-3.075,2.181V64.708a1.117,1.117,0,0,0-1.117-1.117h-6.6a22.283,22.283,0,0,1,20.3-13.969,21.845,21.845,0,0,1,11.894,3.4,1.117,1.117,0,0,0,1.2-1.887,24.079,24.079,0,0,0-12.917-3.744A24.212,24.212,0,1,0,103.3,71.41,24.046,24.046,0,0,0,96.016,54.3ZM66.33,69.6a23.233,23.233,0,0,1,4.3-3.351c3.2-2.111,6.518-4.293,6.247-9.58a1.027,1.027,0,0,1,2-.362,15.05,15.05,0,0,1-.056,10.3,1.117,1.117,0,0,0,1.039,1.524l11.116.007a1.308,1.308,0,0,1,0,2.616h0l-3.017,0h0a1.117,1.117,0,0,0,0,2.234h2.209a1.308,1.308,0,0,1-.014,2.616h-2.2a1.117,1.117,0,0,0,0,2.234h1.406a1.308,1.308,0,0,1-.017,2.616h-2.2a1.117,1.117,0,0,0,0,2.234h1.213a1.308,1.308,0,0,1,1.307,1.309A1.383,1.383,0,0,1,88.361,85.3l-15.254-.009a1.869,1.869,0,0,1-1.129-.391c-1.307-1-3.5-1.372-5.648-1.55V69.6Zm-8.452-3.774H64.1V86.67H63.11a21.993,21.993,0,0,1-5.232-20.845" transform="translate(-46.697 -40.321)" fill="#fff"/><path d="M63.852,28.757l-3.59-5.109a2.886,2.886,0,0,1-.527-1.715l.1-6.244a5.124,5.124,0,0,0-3.471-4.941L50.455,8.724a2.884,2.884,0,0,1-1.429-1.07L45.444,2.365A5.386,5.386,0,0,0,39.69.4L33.736,2.42a2.876,2.876,0,0,1-1.77-.03L25.96.273a5.158,5.158,0,0,0-5.785,1.793L16.52,7.139a2.885,2.885,0,0,1-1.462,1.023L9.09,10a5.124,5.124,0,0,0-3.626,4.828l-.1,6.244a2.884,2.884,0,0,1-.582,1.7l-3.75,4.993a5.124,5.124,0,0,0-.1,6.038l3.59,5.11a2.883,2.883,0,0,1,.527,1.715l-.1,6.244a5.124,5.124,0,0,0,3.471,4.941l5.908,2.024a3.21,3.21,0,0,1,1.61,1.339l-1.558,2.7a1.117,1.117,0,0,0,.409,1.526,1.128,1.128,0,0,0,1.526-.409l1.011-1.751,2.011,2.994a5.319,5.319,0,0,0,5.763,1.964l3.508-1.213L21.755,72.858l-2.771-5.605a1.115,1.115,0,0,0-1.073-.62l-6.239.4,2.21-3.828a1.117,1.117,0,1,0-1.935-1.117L8.693,67.726c-.462.964-.071,1.672,1.039,1.673l7.579-.488,3.366,6.809a1.117,1.117,0,0,0,1.969.063l9.1-15.769a3.484,3.484,0,0,1,1.4.267l8.951,15.5a1.117,1.117,0,0,0,1.969-.063l3.366-6.809,7.579.488a1.058,1.058,0,0,0,1.039-1.673l-3.245-5.619a1.117,1.117,0,1,0-1.935,1.117l2.2,3.812-6.239-.4a1.118,1.118,0,0,0-1.073.62l-2.771,5.605L36.4,61.454a10.794,10.794,0,0,0,4.005,1.121,5.133,5.133,0,0,0,4.109-2.063L47.2,56.866,48.435,59a1.128,1.128,0,0,0,1.526.409,1.117,1.117,0,0,0,.409-1.526l-1.684-2.917a2.883,2.883,0,0,1,1.045-.577L55.7,52.557a5.124,5.124,0,0,0,3.626-4.828l.1-6.244a2.883,2.883,0,0,1,.581-1.7l3.75-4.993A5.124,5.124,0,0,0,63.852,28.757Zm-1.882,4.7-3.75,4.993a5.1,5.1,0,0,0-1.029,3l-.1,6.244a2.9,2.9,0,0,1-2.049,2.728l-5.969,1.835A4.445,4.445,0,0,0,46.39,54.2L42.725,59.18a2.9,2.9,0,0,1-3.254,1.006l-5.9-2.126a5.379,5.379,0,0,0-3.228-.044l-5.951,2.058a2.9,2.9,0,0,1-3.205-1.1l-3.581-5.329a5.155,5.155,0,0,0-2.551-1.926L9.15,49.693A2.9,2.9,0,0,1,7.189,46.9l.1-6.244a5.1,5.1,0,0,0-.933-3.035l-3.59-5.109A2.9,2.9,0,0,1,2.819,29.1l3.75-4.993a5.1,5.1,0,0,0,1.029-3l.1-6.244a2.9,2.9,0,0,1,2.049-2.728L15.715,10.3a5.178,5.178,0,0,0,2.611-1.843L21.98,3.381a2.893,2.893,0,0,1,3.246-1L31.232,4.5a5.082,5.082,0,0,0,3.2.041l5.954-2.018a2.9,2.9,0,0,1,3.209,1.1l3.582,5.289a5.2,5.2,0,0,0,2.549,1.922l5.907,2.023A2.9,2.9,0,0,1,57.6,15.653L57.5,21.9a5.105,5.105,0,0,0,.933,3.034l3.59,5.109A2.9,2.9,0,0,1,61.97,33.453Z" transform="translate(0 0)" fill="#fff"/><path d="M86.786,204.51a1.117,1.117,0,1,1,1.117-1.117,1.117,1.117,0,0,1-1.117,1.117" transform="translate(-72.895 -172.116)" fill="#fff"/></g></g></svg>