<svg xmlns="http://www.w3.org/2000/svg" xmlns:xlink="http://www.w3.org/1999/xlink" width="125" height="125" viewBox="0 0 125 125"><defs><clipPath id="a"><rect width="62" height="63" transform="translate(0.416 -0.449)" fill="#fff"/></clipPath></defs><g transform="translate(-738 -476)"><circle cx="62.5" cy="62.5" r="62.5" transform="translate(738 476)" fill="#0273bc"/><g transform="translate(771.251 505.324)"><g transform="translate(0.333 0.125)" clip-path="url(#a)"><path d="M337.4,326.384a1.2,1.2,0,1,0,.851-.353,1.213,1.213,0,0,0-.851.353" transform="translate(-296.71 -287.033)" fill="#fff"/><path d="M61.488,59.843,48.813,37.889a1.2,1.2,0,0,0-2.086,0L34.4,59.241H10.594l6.494-11.248a19.742,19.742,0,0,0,13.881-5.82l2.507-2.506a1.2,1.2,0,0,0,0-1.7l-2.507-2.506a19.947,19.947,0,0,0-4.645-3.463l4.523-7.834,7.314,12.49a1.2,1.2,0,1,0,2.078-1.217l-8.2-13.994V17.686l14.342-6.829a1.2,1.2,0,0,0,0-2.174L32.044,1.854V1.2a1.2,1.2,0,1,0-2.408,0V21.443L24.13,30.981a19.925,19.925,0,0,0-21.27,4.477L.353,37.964a1.2,1.2,0,0,0,0,1.7l2.506,2.506A19.728,19.728,0,0,0,14.4,47.837L7.466,59.843a1.2,1.2,0,0,0,1.043,1.806H60.445a1.2,1.2,0,0,0,1.043-1.806M43.068,9.77,32.044,15.019V4.521ZM10.143,38.815a6.772,6.772,0,1,1,6.772,6.772,6.779,6.779,0,0,1-6.772-6.772m20.779,0L29.267,40.47a17.5,17.5,0,0,1-4.655,3.338,9.147,9.147,0,0,0,0-9.986,17.491,17.491,0,0,1,4.655,3.338Zm-28.015,0L4.562,37.16a17.507,17.507,0,0,1,4.655-3.338,9.146,9.146,0,0,0,0,9.986A17.5,17.5,0,0,1,4.562,40.47ZM53.171,59.241H37.18L47.77,40.9,58.36,59.241Z" transform="translate(-0.244 -0.258)" fill="#fff"/><path d="M114.085,292.363a3.612,3.612,0,1,0,3.612,3.612,3.616,3.616,0,0,0-3.612-3.612m0,4.816a1.2,1.2,0,1,1,1.2-1.2,1.205,1.205,0,0,1-1.2,1.2" transform="translate(-97.414 -257.419)" fill="#fff"/><path d="M131.665,176.889a1.2,1.2,0,0,0,1.2-1.2v-3.711a1.2,1.2,0,1,0-2.408,0v3.711a1.2,1.2,0,0,0,1.2,1.2" transform="translate(-114.996 -150.466)" fill="#fff"/><path d="M169.884,200.552a1.2,1.2,0,0,0,.851-.352l2.613-2.613a1.2,1.2,0,0,0-1.7-1.7l-2.613,2.613a1.2,1.2,0,0,0,.851,2.055" transform="translate(-148.613 -172.246)" fill="#fff"/><path d="M73.528,200.218a1.2,1.2,0,1,0,1.7-1.7l-2.61-2.61a1.2,1.2,0,1,0-1.7,1.7Z" transform="translate(-62.312 -172.264)" fill="#fff"/></g></g></g></svg>