<svg xmlns="http://www.w3.org/2000/svg" xmlns:xlink="http://www.w3.org/1999/xlink" width="125" height="125" viewBox="0 0 125 125"><defs><clipPath id="a"><rect width="70.459" height="58.751" fill="#fff"/></clipPath></defs><g transform="translate(-5684 11237)"><path d="M62.5,0A62.5,62.5,0,1,1,0,62.5,62.5,62.5,0,0,1,62.5,0Z" transform="translate(5684 -11237)" fill="#0273bc"/><g transform="translate(5711.271 -11202.93)"><g clip-path="url(#a)"><path d="M68.1,197.785H49.311a2.34,2.34,0,0,0-2.022,1.174h-7.4a5.81,5.81,0,0,0-9.332,0h-7.4a2.34,2.34,0,0,0-2.031-1.174H2.348A2.348,2.348,0,0,0,0,200.133v1.174a8.229,8.229,0,0,0,8.218,8.218h7.044A8.21,8.21,0,0,0,22,206h8.347L19.414,218.918H16.437a4.7,4.7,0,0,0-4.7,4.7v2.348a2.348,2.348,0,0,0,2.348,2.348H56.355a2.348,2.348,0,0,0,2.348-2.348v-2.348a4.7,4.7,0,0,0-4.7-4.7H51.03L40.1,206h8.346a8.21,8.21,0,0,0,6.734,3.522h7.044a8.229,8.229,0,0,0,8.219-8.218v-1.174a2.348,2.348,0,0,0-2.348-2.348m-46.963,3.522a5.878,5.878,0,0,1-5.87,5.87H8.218a5.878,5.878,0,0,1-5.87-5.87v-1.174H21.133Zm14.089-2.348a3.522,3.522,0,1,1-3.522,3.522,3.522,3.522,0,0,1,3.522-3.522m-11.741,2.348h5.988a5.872,5.872,0,0,0,0,2.348h-6.34a8.162,8.162,0,0,0,.352-2.348m32.874,22.307v2.348H14.089v-2.348a2.348,2.348,0,0,1,2.348-2.348h37.57a2.348,2.348,0,0,1,2.348,2.348m-33.864-4.7,9.685-11.444a5.726,5.726,0,0,0,6.091,0l9.685,11.444Zm18.483-15.263a5.872,5.872,0,0,0,0-2.348h5.988a8.166,8.166,0,0,0,.352,2.348ZM68.1,201.307a5.877,5.877,0,0,1-5.87,5.87H55.181a5.877,5.877,0,0,1-5.87-5.87v-1.174H68.1Z" transform="translate(0 -169.559)" fill="#fff"/><path d="M1.037,14.275a3.522,3.522,0,0,0,0,4.98l4.7,4.7a3.565,3.565,0,0,0,5.425-.537L22.9,5.8A3.526,3.526,0,0,0,17.029,1.9L7.676,15.933,6.017,14.275a3.607,3.607,0,0,0-4.98,0M7.025,18.6a1.188,1.188,0,0,0,.946.338,1.174,1.174,0,0,0,.861-.517L18.987,3.2a1.174,1.174,0,0,1,1.954,1.3L9.2,22.114a1.218,1.218,0,0,1-.977.521,1.175,1.175,0,0,1-.83-.344L2.7,17.6a1.174,1.174,0,0,1,0-1.66,1.193,1.193,0,0,1,1.66,0Z" transform="translate(-0.005 -0.28)" fill="#fff"/><path d="M341.094,21.3a3.5,3.5,0,0,0,1.1,2.451,3.624,3.624,0,0,0,4.979-.169l5.644-6.039,5.643,6.047a3.522,3.522,0,0,0,5.182-4.771l-.032-.034-5.98-6.407,5.974-6.4a3.522,3.522,0,0,0-5.148-4.807L352.819,7.21l-5.644-6.047a3.522,3.522,0,1,0-5.231,4.718q.04.044.081.087L348,12.375l-5.974,6.4A3.514,3.514,0,0,0,341.094,21.3Zm2.649-.922,6.727-7.2a1.174,1.174,0,0,0,0-1.6l-6.729-7.2A1.174,1.174,0,0,1,345.4,2.709q.029.029.057.061l6.5,6.967a1.213,1.213,0,0,0,1.715,0h0l6.5-6.968a1.174,1.174,0,0,1,1.714,1.6l-6.727,7.2a1.174,1.174,0,0,0,0,1.6l6.724,7.2a1.174,1.174,0,0,1-1.659,1.662c-.02-.02-.039-.04-.057-.061l-6.5-6.967a1.174,1.174,0,0,0-1.659-.057q-.03.028-.057.057l-6.5,6.968a1.2,1.2,0,0,1-1.657.056,1.185,1.185,0,0,1-.052-1.659Z" transform="translate(-294.115 0)" fill="#fff"/></g></g></g></svg>