<svg xmlns="http://www.w3.org/2000/svg" xmlns:xlink="http://www.w3.org/1999/xlink" width="125" height="125" viewBox="0 0 125 125"><defs><clipPath id="a"><rect width="56" height="69.658" fill="#fff"/></clipPath></defs><g transform="translate(-361.25 -469)"><circle cx="62.5" cy="62.5" r="62.5" transform="translate(361.25 469)" fill="#0273bc"/><g transform="translate(395.363 495.921)"><g clip-path="url(#a)"><path d="M33.833,26.151l4.425,4.425a3.646,3.646,0,0,0,5.15,0l12.25-12.25a1.167,1.167,0,0,0,0-1.65L39.325.342a1.167,1.167,0,0,0-1.65,0L29.167,8.851,24.742,4.426a3.646,3.646,0,0,0-5.15,0L8.167,15.851,5.492,13.176a1.167,1.167,0,0,0-1.65,0l-3.5,3.5a1.167,1.167,0,0,0,0,1.65L22.85,40.834l-1.508,1.508a1.167,1.167,0,0,0-.342.825v6.517l-1.167,1.167-.342-.342a1.167,1.167,0,0,0-1.65,0l-17.5,17.5,1.65,1.65L18.667,52.984,29.85,64.167l-3.842,3.842,1.65,1.65,4.667-4.667a1.167,1.167,0,0,0,0-1.65l-1.508-1.508,6.517-6.517L48.175,66.159a1.167,1.167,0,0,0,1.65,0l3.5-3.5a1.167,1.167,0,0,0,0-1.65L42.483,50.167l1.508-1.508a1.167,1.167,0,0,0,0-1.65l-9.333-9.333a1.167,1.167,0,0,0-1.65,0l-.1.1a6.07,6.07,0,0,0-1.748-3.6,1.167,1.167,0,0,0-1.65,0L28,35.684l-1.85-1.85Zm5.592-1.892-1.167,1.167a3.62,3.62,0,0,0-.752,1.1L35.483,24.5l2.092-2.092a1.308,1.308,0,0,1,1.85,1.85M38.5,2.817,53.184,17.5,41.758,28.926a1.308,1.308,0,0,1-1.85-1.85l1.167-1.167a3.642,3.642,0,0,0,0-5.15L30.817,10.5ZM21.242,6.076a1.309,1.309,0,0,1,1.85,0l13.93,13.93a3.625,3.625,0,0,0-1.1.753L21,35.684,6.317,21ZM4.667,15.65l1.85,1.85-1.85,1.85L2.817,17.5ZM50.85,61.834,49,63.684,38.983,53.667l1.85-1.85ZM33.833,40.15l7.684,7.684-4.184,4.184L29.65,44.334l1.508-1.508h0l0,0ZM30.2,36.78a3.789,3.789,0,0,1-.7,4.4l-2.333,2.333a1.167,1.167,0,0,0,0,1.65,5.439,5.439,0,0,1,0,7.683l1.65,1.65a7.74,7.74,0,0,0,2.269-5.414l4.589,4.589-6.517,6.517L21.483,52.5l1.508-1.508a1.167,1.167,0,0,0,.342-.825V43.65Zm-3.854.554-1.85,1.85-1.85-1.85,1.85-1.85Z" transform="translate(0 -0.001)" fill="#fff"/></g></g></g></svg>