<svg xmlns="http://www.w3.org/2000/svg" xmlns:xlink="http://www.w3.org/1999/xlink" width="125" height="125" viewBox="0 0 125 125"><defs><clipPath id="a"><rect width="69.466" height="67.686" fill="#fff"/></clipPath></defs><g transform="translate(-1053 -476)"><circle cx="62.5" cy="62.5" r="62.5" transform="translate(1053 476)" fill="#0273bc"/><g transform="translate(1080 502)"><g transform="translate(3.184 3.051)" clip-path="url(#a)"><path d="M126.528,83.287a3.4,3.4,0,1,0-2.71-1.355l-5.573,7.788a3.382,3.382,0,0,0-3.365.741l-3.715-2.108a3.392,3.392,0,1,0-6.632,0l-3.715,2.108a3.387,3.387,0,1,0,1.007,1.769l3.715-2.108a3.383,3.383,0,0,0,4.618,0l3.715,2.108a3.392,3.392,0,1,0,6.026-1.324l5.573-7.788a3.381,3.381,0,0,0,1.056.169m0-4.749a1.357,1.357,0,1,1-1.357,1.357,1.358,1.358,0,0,1,1.357-1.357M98.509,94.3a1.357,1.357,0,1,1,1.357-1.357A1.358,1.358,0,0,1,98.509,94.3m9.339-5.3a1.357,1.357,0,1,1,1.357-1.357A1.358,1.358,0,0,1,107.849,89m9.339,5.3a1.357,1.357,0,1,1,1.357-1.357,1.358,1.358,0,0,1-1.357,1.357" transform="translate(-82.213 -66.123)" fill="#fff"/><path d="M56.82,79.26H2.878a.844.844,0,0,1-.843-.843V36.436a.844.844,0,0,1,.843-.843h4.8a1.018,1.018,0,0,0,0-2.035h-4.8A2.882,2.882,0,0,0,0,36.436V78.417A2.882,2.882,0,0,0,2.878,81.3H9.895v2.239a2.316,2.316,0,0,0,2.314,2.314H22.394L17.6,95.21a1.018,1.018,0,1,0,1.811.928l5.27-10.289h11.25L41.2,96.137a1.018,1.018,0,1,0,1.811-.928l-4.795-9.361H48.4a2.316,2.316,0,0,0,2.314-2.314V81.3h6.1a1.018,1.018,0,0,0,0-2.035m-8.139,4.275a.279.279,0,0,1-.279.279H12.208a.279.279,0,0,1-.279-.279V81.3H48.682Z" transform="translate(0 -29.005)" fill="#fff"/><path d="M80.089,6.588h45.987a.844.844,0,0,1,.843.843v9.675a1.018,1.018,0,1,0,2.035,0V7.431a2.882,2.882,0,0,0-2.878-2.878H104.3v-2A2.556,2.556,0,0,0,101.743,0H95.554A2.556,2.556,0,0,0,93,2.553v2H80.089a1.018,1.018,0,0,0,0,2.035M95.036,2.553a.518.518,0,0,1,.518-.518h6.189a.518.518,0,0,1,.518.518v2H95.036v-2Z" transform="translate(-68.343)" fill="#fff"/><path d="M98.42,261.018a1.018,1.018,0,0,0-1.018,1.018v8.991a1.017,1.017,0,0,0,1.018,1.018h4.128a1.017,1.017,0,0,0,1.018-1.018v-8.991a1.018,1.018,0,0,0-1.018-1.018Zm3.111,8.992H99.437v-6.956h2.093Z" transform="translate(-84.187 -225.604)" fill="#fff"/><path d="M167.255,222.69a1.017,1.017,0,0,0-1.018,1.018V237.9a1.017,1.017,0,0,0,1.018,1.018h4.128A1.017,1.017,0,0,0,172.4,237.9V223.708a1.017,1.017,0,0,0-1.018-1.018Zm3.111,14.192h-2.093V224.725h2.093Z" transform="translate(-143.683 -192.476)" fill="#fff"/><path d="M236.091,261.018a1.018,1.018,0,0,0-1.018,1.018v8.991a1.017,1.017,0,0,0,1.018,1.018h4.128a1.017,1.017,0,0,0,1.018-1.018v-8.991a1.018,1.018,0,0,0-1.018-1.018Zm3.111,8.992h-2.093v-6.956H239.2Z" transform="translate(-203.179 -225.604)" fill="#fff"/><path d="M304.927,305.274a1.018,1.018,0,0,0-1.018,1.018v2.987a1.018,1.018,0,0,0,1.018,1.018h4.128a1.018,1.018,0,1,0,0-2.035h-3.111v-1.97a1.018,1.018,0,0,0-1.018-1.018" transform="translate(-262.676 -263.856)" fill="#fff"/><path d="M324.383,170.417l-5.838-10.111a13.306,13.306,0,1,0-13.158,3.755,13.373,13.373,0,0,0,3.464.459,13.132,13.132,0,0,0,3-.346l5.836,10.112a3.868,3.868,0,1,0,6.7-3.868m-18.469-8.322a11.265,11.265,0,1,1,8.548-1.125,11.192,11.192,0,0,1-8.548,1.125m16.036,11.843a1.835,1.835,0,0,1-2.5-.671l-5.615-9.728A13.357,13.357,0,0,0,317,161.7l5.617,9.729a1.831,1.831,0,0,1-.671,2.5" transform="translate(-255.436 -119.204)" fill="#fff"/><path d="M341.192,177.216a9.63,9.63,0,0,0-.482-6.976,1.018,1.018,0,1,0-1.841.867,7.622,7.622,0,1,1-2.3-2.839,1.017,1.017,0,1,0,1.228-1.623,9.663,9.663,0,1,0,3.393,10.571" transform="translate(-278.572 -142.34)" fill="#fff"/></g></g></g></svg>