<svg xmlns="http://www.w3.org/2000/svg" xmlns:xlink="http://www.w3.org/1999/xlink" width="124.459" height="124.459" viewBox="0 0 124.459 124.459"><defs><clipPath id="a"><rect width="73.477" height="67.73" fill="#fff"/></clipPath></defs><g transform="translate(-948.271 -3177.348)"><circle cx="62.229" cy="62.229" r="62.229" transform="translate(948.271 3177.348)" fill="#61d9dd"/><g transform="translate(973.271 3203.348)"><g clip-path="url(#a)"><path d="M70.285,35.978,59.2,33.007a4.3,4.3,0,0,0-4.017.982l-3.044-5.646a27.567,27.567,0,0,0-7.742-8.972l7.992-7.992a1.435,1.435,0,0,0,0-2.03L43.455.42a1.436,1.436,0,0,0-2.03,0L27.937,13.909A27.474,27.474,0,0,0,8.525,21.955L4.588,25.893A5.45,5.45,0,0,0,7.057,35.02L.121,50.793a1.435,1.435,0,0,0,1.891,1.891l15.775-6.937a5.454,5.454,0,0,0,9.128,2.473l1.563-1.563.626.626A21.356,21.356,0,0,0,47.565,59.951a4.306,4.306,0,0,0,3.162,4.661l11.089,2.972a4.3,4.3,0,0,0,5.273-3.044L68.5,59.275a1.435,1.435,0,0,0-2.772-.743L64.317,63.8a1.436,1.436,0,0,1-1.758,1.015L51.47,61.84a1.435,1.435,0,0,1-1.015-1.758L56.7,36.794a1.437,1.437,0,0,1,1.758-1.015l11.09,2.971a1.437,1.437,0,0,1,1.015,1.758l-1.486,5.546a1.435,1.435,0,1,0,2.772.743l1.486-5.546A4.31,4.31,0,0,0,70.285,35.978ZM49.341,10.365,29.287,30.419l-.161-.161a5.986,5.986,0,0,0-2.931-1.617L46.905,7.929Zm-6.9-6.9L44.876,5.9,12.908,37.867l-2.435-2.435ZM6.617,31.576a2.583,2.583,0,0,1,0-3.653l3.937-3.937a24.419,24.419,0,0,1,14.324-7.017L10.27,31.576a2.586,2.586,0,0,1-3.653,0m2.3,6.355,5.962,5.962L4.233,48.573Zm8.461,4.4L14.938,39.9l4.049-4.049A5.991,5.991,0,0,0,20.6,38.782l.161.161Zm7.512,3.859a2.583,2.583,0,1,1-3.653-3.653L22.8,40.976l3.653,3.653ZM48.282,57.1A18.492,18.492,0,0,1,31.629,45.9a1.437,1.437,0,0,0-.3-.449l-8.694-8.694A3.157,3.157,0,1,1,27.1,32.287l8.694,8.694a1.435,1.435,0,0,0,2.03-2.03l-6.5-6.5L42.338,21.427a24.684,24.684,0,0,1,7.271,8.279l4.018,7.451Z" transform="translate(0)" fill="#fff"/><path d="M470.75,359.847a1.436,1.436,0,1,1,1.015-.421,1.449,1.449,0,0,1-1.015.421" transform="translate(-401.964 -305.747)" fill="#fff"/></g></g></g></svg>