<svg xmlns="http://www.w3.org/2000/svg" xmlns:xlink="http://www.w3.org/1999/xlink" width="157" height="157" viewBox="0 0 157 157"><defs><clipPath id="a"><rect width="69.588" height="69.588" fill="#fff"/></clipPath></defs><g transform="translate(-705 -1111)"><rect width="157" height="157" rx="78.5" transform="translate(705 1111)" fill="#13c6cc"/><g transform="translate(1055.707 1154.793)"><g transform="translate(-307 -0.087)" clip-path="url(#a)"><path d="M286.167,36.856a4.563,4.563,0,0,0-2.186.555,4.588,4.588,0,0,0-7.518-1.6,4.581,4.581,0,0,0-5.111-.933V30.951c.042,0,.084.006.127.006h11.27a4.214,4.214,0,0,0,4.209-4.209V20.91a1.358,1.358,0,0,0-2.716,0v5.839a1.5,1.5,0,0,1-1.494,1.494h-11.27c-.043,0-.085,0-.127.006V25.341a4.592,4.592,0,0,0-9.185,0v2.9h-1.958a1.5,1.5,0,0,1-1.494-1.494V4.209a1.5,1.5,0,0,1,1.494-1.494h22.54a1.5,1.5,0,0,1,1.494,1.494v5.839a1.358,1.358,0,1,0,2.716,0V4.209A4.214,4.214,0,0,0,282.749,0h-22.54A4.214,4.214,0,0,0,256,4.209v22.54a4.214,4.214,0,0,0,4.209,4.209h1.958V42.475l-4.679,6.859a7.946,7.946,0,0,0-.627,7.82L262.3,68.739a1.358,1.358,0,0,0,2.459-1.153L259.319,56a5.219,5.219,0,0,1,.412-5.136l2.436-3.571v2.567a1.358,1.358,0,0,0,2.716,0V25.341a1.877,1.877,0,0,1,3.754,0V45.4a1.358,1.358,0,1,0,2.716,0V39.065a1.877,1.877,0,1,1,3.754,0V45.4a1.358,1.358,0,1,0,2.716,0V39.065a1.877,1.877,0,0,1,3.754,0V45.4a1.358,1.358,0,1,0,2.716,0V41.449a1.877,1.877,0,0,1,3.754,0V52.8a29.724,29.724,0,0,1-1.363,8.9l-1.9,6.051a1.358,1.358,0,1,0,2.591.813l1.9-6.051A32.437,32.437,0,0,0,290.76,52.8V41.449a4.6,4.6,0,0,0-4.592-4.592" transform="translate(-221.24 0.033)" fill="#fff"/><path d="M26.749,0H4.209A4.214,4.214,0,0,0,0,4.209v22.54a4.214,4.214,0,0,0,4.209,4.209h5.839a1.358,1.358,0,1,0,0-2.716H4.209a1.5,1.5,0,0,1-1.494-1.494V4.209A1.5,1.5,0,0,1,4.209,2.716h22.54a1.5,1.5,0,0,1,1.494,1.494v22.54a1.5,1.5,0,0,1-1.494,1.494H20.91a1.358,1.358,0,0,0,0,2.716h5.839a4.214,4.214,0,0,0,4.209-4.209V4.209A4.214,4.214,0,0,0,26.749,0" transform="translate(0 0.033)" fill="#fff"/><path d="M80.735,80.736a1.358,1.358,0,0,0,0-1.92l-3.809-3.808L80.735,71.2a1.358,1.358,0,0,0-1.92-1.92l-3.809,3.808L71.2,69.279a1.358,1.358,0,0,0-1.92,1.92l3.808,3.808-3.808,3.808a1.358,1.358,0,1,0,1.92,1.92l3.809-3.808,3.809,3.808a1.358,1.358,0,0,0,1.92,0" transform="translate(-59.528 -59.496)" fill="#fff"/><path d="M338.532,62.719l-6.766,6.766-2.841-2.841a1.358,1.358,0,1,0-1.92,1.92l3.8,3.8a1.358,1.358,0,0,0,1.92,0l7.727-7.727a1.358,1.358,0,0,0-1.92-1.92" transform="translate(-282.26 -53.826)" fill="#fff"/><path d="M105.357,207.995a1.359,1.359,0,1,0,.96.4,1.368,1.368,0,0,0-.96-.4" transform="translate(-89.878 -179.72)" fill="#fff"/><path d="M465.355,104a1.359,1.359,0,1,0,.96.4,1.368,1.368,0,0,0-.96-.4" transform="translate(-400.995 -89.842)" fill="#fff"/></g></g></g></svg>