<svg xmlns="http://www.w3.org/2000/svg" xmlns:xlink="http://www.w3.org/1999/xlink" width="185" height="185" viewBox="0 0 185 185"><defs><clipPath id="a"><rect width="76.962" height="97.959" fill="#fff"/></clipPath></defs><g transform="translate(-1022 -459)"><path d="M92.5,0A92.5,92.5,0,1,1,0,92.5,92.5,92.5,0,0,1,92.5,0Z" transform="translate(1022 459)" fill="#1b3f5e"/><g transform="translate(512.023 485.479)"><g transform="translate(563.996 16.541)" clip-path="url(#a)"><path d="M67.167,12.835H58.3V8.87C58.3,7.587,56.905,7,55.623,7h-6.88c-1.632-4.664-5.714-7-10.378-7A10.611,10.611,0,0,0,27.986,7H21.223c-1.283,0-2.565.583-2.565,1.866v3.965H9.8A9.912,9.912,0,0,0,0,22.28V89.1c0,5.131,4.664,8.862,9.8,8.862H67.167c5.131,0,9.8-3.731,9.8-8.862V22.28a9.912,9.912,0,0,0-9.8-9.445M23.322,11.669h6.414a2.566,2.566,0,0,0,2.216-2.1,6.763,6.763,0,0,1,6.414-5.247,6.646,6.646,0,0,1,6.3,5.247,2.565,2.565,0,0,0,2.332,2.1H53.64V21H23.322ZM72.3,89.1c0,2.565-2.565,4.2-5.131,4.2H9.8c-2.565,0-5.131-1.632-5.131-4.2V22.28A5.247,5.247,0,0,1,9.8,17.5h8.862v5.947a2.449,2.449,0,0,0,2.565,2.216h34.4A2.565,2.565,0,0,0,58.3,23.446V17.5h8.862A5.248,5.248,0,0,1,72.3,22.28V89.1Z" transform="translate(0 0)" fill="#fff"/><path d="M70.163,231.038a2.332,2.332,0,0,0-3.265-.116l-7.463,7.113-3.148-3.265a2.332,2.332,0,0,0-3.265-.116,2.449,2.449,0,0,0,0,3.382l4.781,4.9a2.1,2.1,0,0,0,1.632.7,2.332,2.332,0,0,0,1.632-.7l9.1-8.629a2.215,2.215,0,0,0,.135-3.13c-.042-.047-.087-.092-.134-.135" transform="translate(-40.661 -178.907)" fill="#fff"/><path d="M180.663,256.034h-26.82a2.332,2.332,0,1,0,0,4.664h26.82a2.332,2.332,0,1,0,0-4.664" transform="translate(-117.694 -198.888)" fill="#fff"/><path d="M70.163,147.447a2.332,2.332,0,0,0-3.265-.117l-7.463,7.113-3.148-3.265a2.332,2.332,0,0,0-3.265-.117,2.449,2.449,0,0,0,0,3.382l4.781,4.9a2.1,2.1,0,0,0,1.632.7,2.331,2.331,0,0,0,1.632-.7l9.1-8.629a2.215,2.215,0,0,0,.135-3.13c-.042-.047-.087-.092-.134-.135" transform="translate(-40.661 -113.972)" fill="#fff"/><path d="M180.663,172.442h-26.82a2.332,2.332,0,0,0,0,4.664h26.82a2.332,2.332,0,0,0,0-4.664" transform="translate(-117.694 -133.954)" fill="#fff"/><path d="M70.163,314.63a2.332,2.332,0,0,0-3.265-.117l-7.463,7.113-3.148-3.265a2.332,2.332,0,0,0-3.265-.116,2.449,2.449,0,0,0,0,3.382l4.781,4.9a2.1,2.1,0,0,0,1.632.7,2.331,2.331,0,0,0,1.632-.7l9.1-8.629a2.215,2.215,0,0,0,.135-3.13c-.042-.047-.087-.092-.134-.135" transform="translate(-40.661 -243.841)" fill="#fff"/><path d="M180.663,339.626h-26.82a2.332,2.332,0,1,0,0,4.664h26.82a2.332,2.332,0,1,0,0-4.664" transform="translate(-117.694 -263.823)" fill="#fff"/></g></g></g></svg>