<svg xmlns="http://www.w3.org/2000/svg" xmlns:xlink="http://www.w3.org/1999/xlink" width="157" height="157" viewBox="0 0 157 157"><defs><clipPath id="a"><rect width="86.883" height="63.441" fill="#fff"/></clipPath></defs><g transform="translate(-1020 -1087)"><rect width="157" height="157" rx="78.5" transform="translate(1020 1087)" fill="#13c6cc"/><g transform="translate(1056.973 1131.535)"><g clip-path="url(#a)"><path d="M43.252,214.971H66.923a1.273,1.273,0,1,0,0-2.545H43.252a1.273,1.273,0,1,0,0,2.545" transform="translate(-34.855 -176.379)" fill="#fff"/><path d="M43.252,248.165H66.923a1.273,1.273,0,0,0,0-2.546H43.252a1.273,1.273,0,1,0,0,2.546" transform="translate(-34.855 -203.939)" fill="#fff"/><path d="M43.253,56.235a1.273,1.273,0,0,0-1.273,1.273v6.586a3.616,3.616,0,0,0,3.612,3.612H64.585A3.616,3.616,0,0,0,68.2,64.094v-18.5a3.616,3.616,0,0,0-3.612-3.612H45.592a3.616,3.616,0,0,0-3.612,3.612v5.966a1.273,1.273,0,0,0,2.546,0V45.592a1.067,1.067,0,0,1,1.066-1.066H64.585a1.067,1.067,0,0,1,1.066,1.066v18.5a1.067,1.067,0,0,1-1.066,1.066h-.879v-1.2a8.6,8.6,0,0,0-3.739-7.107,5.911,5.911,0,1,0-9.756,0,8.6,8.6,0,0,0-3.739,7.107v1.2h-.879a1.067,1.067,0,0,1-1.066-1.066V57.508A1.273,1.273,0,0,0,43.253,56.235Zm11.835-6.09a3.366,3.366,0,0,1,2.061,6.027l-.013.01a3.367,3.367,0,0,1-4.1,0l-.015-.012a3.366,3.366,0,0,1,2.062-6.026ZM49.016,63.963a6.059,6.059,0,0,1,3.138-5.318,5.923,5.923,0,0,0,5.867,0,6.059,6.059,0,0,1,3.138,5.318v1.2H49.016Z" transform="translate(-34.856 -34.856)" fill="#fff"/><path d="M81.256,9.432V4.923A4.929,4.929,0,0,0,76.333,0H4.923A4.928,4.928,0,0,0,0,4.923V49.882A4.928,4.928,0,0,0,4.923,54.8H24.739a1.273,1.273,0,1,0,0-2.546H4.923a2.38,2.38,0,0,1-2.377-2.377V4.923A2.38,2.38,0,0,1,4.923,2.546H76.333a2.38,2.38,0,0,1,2.377,2.377V7.545A16.944,16.944,0,0,0,53.353,25.438a3.964,3.964,0,0,0-2.64,1.16h0a3.983,3.983,0,0,0-.065,5.56L29.669,53.137a3.7,3.7,0,0,0-1.091,2.616l-.02,4.174a3.5,3.5,0,0,0,3.5,3.514h.017l4.174-.021a3.7,3.7,0,0,0,2.616-1.091l.676-.676a3.16,3.16,0,0,0,.92-2.353l-.1-2.409a.6.6,0,0,1,.645-.628l2.244.151a3.153,3.153,0,0,0,2.44-.916,6.569,6.569,0,0,0,1.179-1.342,3.149,3.149,0,0,0,.405-1.675l-.1-2.409a.6.6,0,0,1,.645-.627l2.244.151a3.161,3.161,0,0,0,2.44-.916l.675-.675a3.16,3.16,0,0,0,.92-2.353l-.1-2.409a.6.6,0,0,1,.645-.627l2.244.151a3.152,3.152,0,0,0,2.44-.916l.52-.52A3.98,3.98,0,0,0,66.3,38.59a17.067,17.067,0,0,0,12.41-2.043V49.882a2.38,2.38,0,0,1-2.377,2.377H51.573a1.273,1.273,0,1,0,0,2.546H76.333a4.929,4.929,0,0,0,4.923-4.923V34.663A16.957,16.957,0,0,0,81.256,9.432ZM57.069,40.23l-2.244-.151a3.152,3.152,0,0,0-3.36,3.269l.1,2.409a.606.606,0,0,1-.177.452l-.675.675a.6.6,0,0,1-.468.176L48,46.907a3.152,3.152,0,0,0-3.36,3.269l.1,2.409a.606.606,0,0,1-.177.452l-.665.664a.6.6,0,0,1-.468.176l-2.244-.151a3.152,3.152,0,0,0-3.36,3.269l.1,2.409a.606.606,0,0,1-.177.452l-.676.676a1.173,1.173,0,0,1-.829.346l-4.174.021h0a.951.951,0,0,1-.951-.956l.02-4.174a1.173,1.173,0,0,1,.346-.829L52.446,33.958l5.593,5.593-.5.5a.6.6,0,0,1-.468.176Zm6.283-.993a1.435,1.435,0,0,1-2.027,0l-8.812-8.813A1.433,1.433,0,0,1,54.538,28.4l.008.008,8.8,8.805a1.434,1.434,0,0,1,0,2.026m2.076-3.522c-.2-.245-9.139-9.168-9.157-9.184A14.4,14.4,0,1,1,79.175,33.1l-.01.008a14.461,14.461,0,0,1-13.738,2.609" transform="translate(0 0)" fill="#fff"/><path d="M414.625,75.077a5.36,5.36,0,1,0,0,7.58h0A5.357,5.357,0,0,0,414.625,75.077ZM408.9,80.909h0l-.021-.021,0,0-.025-.025a2.81,2.81,0,1,1,.053.051" transform="translate(-336.668 -61.036)" fill="#fff"/></g></g></g></svg>