<svg xmlns="http://www.w3.org/2000/svg" xmlns:xlink="http://www.w3.org/1999/xlink" width="133" height="133" viewBox="0 0 133 133"><defs><clipPath id="a"><rect width="82.096" height="77.685" fill="#fff"/></clipPath></defs><g transform="translate(-7576 10649)"><circle cx="66.5" cy="66.5" r="66.5" transform="translate(7576 -10649)" fill="#13c6cc"/><g transform="translate(7601.452 -10622.602)"><g clip-path="url(#a)"><path d="M124.369,292.567a1.6,1.6,0,1,0-2.19-.587,1.6,1.6,0,0,0,2.19.587" transform="translate(-102.408 -243.144)" fill="#fff"/><path d="M15.39,79.262l8.075,13.987a6.414,6.414,0,1,0,11.109-6.413L29.764,78.5,33.93,76.1a1.6,1.6,0,0,0,.587-2.19L32.431,70.3l30.712-6.024a4.81,4.81,0,0,0,3.9-7.207l-5.329-9.23,3.405-5.158a1.6,1.6,0,0,0,.051-1.686l-3.207-5.554a1.607,1.607,0,0,0-1.485-.8l-6.169.37L48.393,24.761a4.768,4.768,0,0,0-4.106-2.4h-.061a4.768,4.768,0,0,0-4.05,2.218L19.23,51.257,5.613,59.119A11.224,11.224,0,0,0,15.39,79.262M31.8,88.439a3.207,3.207,0,0,1-5.555,3.206L18.225,77.758l5.554-3.207L31.8,88.439M28.16,75.725l-1.6-2.777,2.777-1.6,1.6,2.777ZM59.681,37.9,61.9,41.736l-1.976,2.993L56.1,38.113ZM42.858,26.332a1.6,1.6,0,0,1,2.757.032l18.65,32.3a1.6,1.6,0,0,1-1.349,2.4,5.882,5.882,0,0,0-.879.149L42.309,27.05c.414-.532.467-.584.549-.718m-2.683,3.437,18.535,32.1L30.736,67.36,22.231,52.628ZM4.282,72.848A8.012,8.012,0,0,1,7.216,61.9l12.5-7.215,8.017,13.886-12.5,7.216A8.027,8.027,0,0,1,4.282,72.848" transform="translate(0 -18.771)" fill="#fff"/><path d="M52.832,310.375a1.6,1.6,0,0,0-2.19-.587l-2.777,1.6a1.606,1.606,0,0,1-2.19-.587,1.6,1.6,0,0,0-2.777,1.6,4.817,4.817,0,0,0,6.571,1.761l2.777-1.6a1.6,1.6,0,0,0,.587-2.19" transform="translate(-35.838 -259.935)" fill="#fff"/><path d="M446.034,42.684,437.1,47.656a1.6,1.6,0,1,0,1.56,2.8l8.934-4.972a1.6,1.6,0,0,0-1.559-2.8" transform="translate(-366.321 -35.669)" fill="#fff"/><path d="M448.277,138.336l-6.2-1.66a1.6,1.6,0,1,0-.83,3.1l6.2,1.66a1.6,1.6,0,1,0,.829-3.1" transform="translate(-369.502 -114.715)" fill="#fff"/><path d="M385.209,1.189l-1.662,6.2a1.6,1.6,0,1,0,3.1.83l1.661-6.2a1.6,1.6,0,1,0-3.1-.831" transform="translate(-322.002 0)" fill="#fff"/></g></g></g></svg>