<svg xmlns="http://www.w3.org/2000/svg" xmlns:xlink="http://www.w3.org/1999/xlink" width="133" height="133" viewBox="0 0 133 133"><defs><clipPath id="a"><rect width="83.508" height="83.442" fill="#fff"/></clipPath></defs><g transform="translate(-7934 10649)"><circle cx="66.5" cy="66.5" r="66.5" transform="translate(7934 -10649)" fill="#13c6cc"/><g transform="translate(7959.746 -10625.221)"><g clip-path="url(#a)"><path d="M130.326,21.154a1.358,1.358,0,0,0-1.787-.706,41.793,41.793,0,0,0-4.332,2.187,1.359,1.359,0,1,0,1.364,2.35,39.024,39.024,0,0,1,4.049-2.044,1.359,1.359,0,0,0,.706-1.787" transform="translate(-103.383 -17.019)" fill="#fff"/><path d="M296.6,4.778a41.622,41.622,0,0,0-4.727-1.108,1.359,1.359,0,0,0-.464,2.677,38.937,38.937,0,0,1,4.418,1.035,1.359,1.359,0,1,0,.774-2.6" transform="translate(-242.933 -3.055)" fill="#fff"/><path d="M239.01.066C238.23.022,237.436,0,236.65,0h0c-.827,0-1.664.024-2.488.073a1.359,1.359,0,0,0,.078,2.715l.081,0c.771-.046,1.555-.069,2.328-.069h0c.735,0,1.478.021,2.208.061A1.359,1.359,0,0,0,239.01.066" transform="translate(-194.896)" fill="#fff"/><path d="M492.128,195.875a41.77,41.77,0,0,0-.847-4.78,1.359,1.359,0,1,0-2.643.63,39.073,39.073,0,0,1,.792,4.468,1.358,1.358,0,1,0,2.7-.318" transform="translate(-408.909 -159.053)" fill="#fff"/><path d="M483.487,304.812a1.359,1.359,0,0,0-1.634,1.01,38.942,38.942,0,0,1-1.3,4.35,1.359,1.359,0,1,0,2.553.929,41.617,41.617,0,0,0,1.391-4.655,1.359,1.359,0,0,0-1.01-1.634" transform="translate(-402.105 -255.066)" fill="#fff"/><path d="M351.635,22.313a41.739,41.739,0,0,0-4.342-2.175,1.358,1.358,0,1,0-1.073,2.5,39.066,39.066,0,0,1,4.059,2.033,1.359,1.359,0,1,0,1.356-2.354" transform="translate(-289.063 -16.76)" fill="#fff"/><path d="M10.657,310.424a38.9,38.9,0,0,1-1.3-4.346,1.359,1.359,0,1,0-2.644.627,41.6,41.6,0,0,0,1.4,4.651,1.359,1.359,0,0,0,2.552-.932" transform="translate(-5.584 -255.281)" fill="#fff"/><path d="M183.53,4.91a1.358,1.358,0,0,0-1.574-1.1,41.643,41.643,0,0,0-4.724,1.123,1.359,1.359,0,1,0,.782,2.6,38.931,38.931,0,0,1,4.414-1.049,1.358,1.358,0,0,0,1.1-1.574" transform="translate(-147.515 -3.17)" fill="#fff"/><path d="M495.317,247.145a1.358,1.358,0,0,0-1.358,1.358v.086a39.66,39.66,0,0,1-.26,4.532,1.359,1.359,0,1,0,2.7.312,42.352,42.352,0,0,0,.278-4.844V248.5a1.359,1.359,0,0,0-1.359-1.359" transform="translate(-413.168 -206.835)" fill="#fff"/><path d="M269.557,492.721a1.358,1.358,0,0,0-1.573-1.1,39.3,39.3,0,0,1-4.508.524,1.358,1.358,0,0,0,.077,2.715l.08,0a41.96,41.96,0,0,0,4.821-.56,1.358,1.358,0,0,0,1.1-1.573" transform="translate(-219.431 -411.418)" fill="#fff"/><path d="M210.9,492.183a39.308,39.308,0,0,1-4.508-.519,1.359,1.359,0,1,0-.467,2.677,42.02,42.02,0,0,0,4.822.555l.078,0a1.359,1.359,0,0,0,.076-2.715" transform="translate(-171.395 -411.456)" fill="#fff"/><path d="M155.858,476.867a38.847,38.847,0,0,1-4.267-1.55,1.359,1.359,0,0,0-1.076,2.5,41.636,41.636,0,0,0,4.566,1.659,1.358,1.358,0,1,0,.776-2.6" transform="translate(-125.279 -397.699)" fill="#fff"/><path d="M4.091,190.857a1.358,1.358,0,0,0-1.633,1.012,41.813,41.813,0,0,0-.832,4.783,1.359,1.359,0,0,0,2.7.309A39.047,39.047,0,0,1,5.1,192.49a1.358,1.358,0,0,0-1.012-1.633" transform="translate(-1.353 -159.697)" fill="#fff"/><path d="M325.836,475.927a1.358,1.358,0,0,0-1.786-.708,38.945,38.945,0,0,1-4.263,1.554,1.359,1.359,0,1,0,.78,2.6,41.639,41.639,0,0,0,4.562-1.663,1.359,1.359,0,0,0,.708-1.786" transform="translate(-266.818 -397.617)" fill="#fff"/><path d="M2.982,253.823a39.612,39.612,0,0,1-.265-4.532,1.358,1.358,0,0,0-1.358-1.357h0A1.359,1.359,0,0,0,0,249.294a42.348,42.348,0,0,0,.283,4.844,1.359,1.359,0,0,0,1.348,1.2,1.384,1.384,0,0,0,.159-.009,1.359,1.359,0,0,0,1.192-1.507" transform="translate(0 -207.496)" fill="#fff"/><path d="M25.647,46.383a1.226,1.226,0,1,0-2.32.792,7.365,7.365,0,0,1,.393,2.385v3.274a.437.437,0,0,1-.436.436H7.588a.437.437,0,0,1-.436-.436V49.559a7.392,7.392,0,0,1,2.457-5.5A7.175,7.175,0,1,0,8.473,41.82,9.845,9.845,0,0,0,4.7,49.559v3.274A2.891,2.891,0,0,0,7.589,55.72h15.7a2.891,2.891,0,0,0,2.888-2.888V49.559a9.819,9.819,0,0,0-.525-3.176M15.356,35.007a4.738,4.738,0,1,1-4.738,4.738,4.744,4.744,0,0,1,4.738-4.738" transform="translate(-3.934 -27.246)" fill="#fff"/><path d="M396.6,46.384a1.226,1.226,0,1,0-2.32.792,7.369,7.369,0,0,1,.393,2.385v3.274a.437.437,0,0,1-.436.436h-15.7a.437.437,0,0,1-.436-.436V49.56a7.392,7.392,0,0,1,2.457-5.5,7.174,7.174,0,1,0-1.137-2.242,9.844,9.844,0,0,0-3.772,7.739v3.274a2.891,2.891,0,0,0,2.888,2.888h15.7a2.891,2.891,0,0,0,2.888-2.888V49.56a9.82,9.82,0,0,0-.525-3.176M386.307,35.008a4.738,4.738,0,1,1-4.738,4.738,4.744,4.744,0,0,1,4.738-4.738" transform="translate(-314.383 -27.247)" fill="#fff"/><path d="M396.6,351.252a1.226,1.226,0,1,0-2.32.792,7.368,7.368,0,0,1,.393,2.385V357.7a.437.437,0,0,1-.436.436h-15.7a.437.437,0,0,1-.436-.436v-3.274a7.392,7.392,0,0,1,2.457-5.5,7.174,7.174,0,1,0-1.137-2.242,9.844,9.844,0,0,0-3.772,7.739V357.7a2.891,2.891,0,0,0,2.888,2.888h15.7a2.891,2.891,0,0,0,2.888-2.888v-3.274a9.819,9.819,0,0,0-.525-3.176m-10.292-11.376a4.738,4.738,0,1,1-4.738,4.738,4.744,4.744,0,0,1,4.738-4.738" transform="translate(-314.382 -282.391)" fill="#fff"/><path d="M25.647,351.252a1.226,1.226,0,1,0-2.32.792,7.365,7.365,0,0,1,.393,2.385V357.7a.437.437,0,0,1-.436.436H7.588a.437.437,0,0,1-.436-.436v-3.274a7.392,7.392,0,0,1,2.457-5.5,7.173,7.173,0,1,0-1.137-2.242A9.844,9.844,0,0,0,4.7,354.428V357.7a2.891,2.891,0,0,0,2.888,2.888h15.7a2.891,2.891,0,0,0,2.888-2.888v-3.274a9.819,9.819,0,0,0-.525-3.176M15.356,339.876a4.738,4.738,0,1,1-4.738,4.738,4.744,4.744,0,0,1,4.738-4.738" transform="translate(-3.934 -282.391)" fill="#fff"/><path d="M153.018,172.963H139.976a11.386,11.386,0,0,0-11.215,9.51h-.445a9.364,9.364,0,0,0-9.22,9.481,9.468,9.468,0,0,0,5.24,8.553c1.573,3.811,6.483,5.639,6.7,5.719a1.226,1.226,0,0,0,1.536-1.658,8.87,8.87,0,0,1-.83-3.132h6.851a9.23,9.23,0,0,0,8.466-5.732h1.952a10.653,10.653,0,0,1-1.088,4.232,1.225,1.225,0,0,0,1.518,1.676c.272-.1,6.459-2.327,8.358-6.962a11.37,11.37,0,0,0-4.781-21.686m3.351,19.635a1.205,1.205,0,0,0-.7.745c-.688,2.147-2.782,3.746-4.509,4.743a11.009,11.009,0,0,0,.242-3.738,1.229,1.229,0,0,0-1.219-1.1H139.976a8.854,8.854,0,0,1-3.321-.644,1.219,1.219,0,0,0-1.321.263l-.017.017a1.216,1.216,0,0,0,.407,1.987,11.294,11.294,0,0,0,4.252.827h4.339a6.714,6.714,0,0,1-5.721,3.281H130.55a1.223,1.223,0,0,0-1.217,1.083,9.248,9.248,0,0,0,.084,2.573,6.943,6.943,0,0,1-2.927-3.374,1.266,1.266,0,0,0-.7-.792,7.006,7.006,0,0,1-4.238-6.52,6.91,6.91,0,0,1,6.768-7.03h.306a11.276,11.276,0,0,0,.8,3.642,1.217,1.217,0,0,0,1.989.412l.018-.018a1.216,1.216,0,0,0,.265-1.316,8.864,8.864,0,0,1-.638-3.51,9,9,0,0,1,9.042-8.72h12.766a9.068,9.068,0,0,1,9.068,8.947,8.885,8.885,0,0,1-5.567,8.236" transform="translate(-99.671 -144.753)" fill="#fff"/></g></g></g></svg>