<svg xmlns="http://www.w3.org/2000/svg" xmlns:xlink="http://www.w3.org/1999/xlink" width="133" height="133" viewBox="0 0 133 133"><defs><clipPath id="a"><rect width="69.513" height="69.52" fill="#fff"/></clipPath></defs><g transform="translate(-384 -1065)"><circle cx="66.5" cy="66.5" r="66.5" transform="translate(384 1065)" fill="#13c6cc"/><g transform="translate(411.623 1091.938)"><g clip-path="url(#a)"><path d="M104.81,281.881a1.158,1.158,0,0,0-1.594.378,5.646,5.646,0,0,0,0,5.85,1.158,1.158,0,1,0,1.969-1.216,3.338,3.338,0,0,1,0-3.417,1.158,1.158,0,0,0-.375-1.594" transform="translate(-88.498 -243.466)" fill="#fff"/><path d="M72.459,247.828a1.158,1.158,0,0,0-1.622.241,12.743,12.743,0,0,0,0,15.282,1.158,1.158,0,0,0,1.854-1.39,10.426,10.426,0,0,1,0-12.52A1.158,1.158,0,0,0,72.459,247.828Z" transform="translate(-59.021 -213.987)" fill="#fff"/><path d="M39.694,223.829a1.158,1.158,0,0,0-1.853-1.39,18.535,18.535,0,0,0,0,22.242,1.158,1.158,0,1,0,1.853-1.39A16.218,16.218,0,0,1,39.694,223.829Z" transform="translate(-29.5 -191.842)" fill="#fff"/><path d="M4.865,226.031a1.158,1.158,0,1,0,1.853-1.39,22.01,22.01,0,0,1,0-26.412,1.158,1.158,0,1,0-1.853-1.39A24.327,24.327,0,0,0,4.865,226.031Z" transform="translate(0 -169.717)" fill="#fff"/><path d="M183.436,32.124c1.871-2.531,3.992-5.4,4.06-10.294a28.33,28.33,0,0,0-.985-8.016,15.745,15.745,0,0,0-5.655-8.169C173.42-.207,167.019-1.282,155.5,1.376c-3.141.725-6.7,1.833-9.267,4.56a18.036,18.036,0,0,0-3.793,6.2l-.158.421c-1.061,2.8-2.275,6.273-2.275,8.309a4.074,4.074,0,0,0,1.5,3.193c.453.436.526.543.526.763a3.844,3.844,0,0,1-1.458,2.715l-.3.316c-2.8,3.022-3.849,4.286-3.732,5.56a2.918,2.918,0,0,0,1.453,2A6.792,6.792,0,0,0,139,36a3.51,3.51,0,0,1,1,.642,1.378,1.378,0,0,1-.085.8c-.135.288-.277.536-.4.753-.348.623-1,1.783,0,2.627a2.763,2.763,0,0,0,.9.475,2.641,2.641,0,0,0-.366,1.491,1.45,1.45,0,0,0,.6,1.01c.214.153.444.286.672.417.52.3.68.415.731.613a1.839,1.839,0,0,1-.08.945,5.5,5.5,0,0,0,.155,3.463,3.714,3.714,0,0,0,4.328,2.622,74.87,74.87,0,0,0,7.717-2.308c1.962,1.792,2.651,8.469,1.746,17.408a2.317,2.317,0,0,0,2.3,2.556h26.965a2.333,2.333,0,0,0,1.738-.774,2.285,2.285,0,0,0,.573-1.772,39.032,39.032,0,0,0-5.688-14.9c-1.352-1.772-1.6-4.154-1.871-6.676-.045-.427-.09-.854-.141-1.28a15.66,15.66,0,0,1,1.2-8.109,20.326,20.326,0,0,1,2.44-3.881ZM178.4,50.257a10.106,10.106,0,0,0,1.1,2.535c-2.879,2.74-9.045,6.776-20.889,8.007.012-.7.015-1.4,0-2.106C169.379,57.45,175.313,53.441,178.4,50.257ZM158.218,67.2c.123-1.216.232-2.606.31-4.07,11.885-1.182,18.581-4.981,22.259-8.374a38.079,38.079,0,0,1,4.4,12.444Zm20.647-32.122a17.973,17.973,0,0,0-1.38,9.311c.05.411.095.826.139,1.244.061.586.126,1.177.2,1.767-2.341,2.955-7.793,7.605-19.327,8.971a16.389,16.389,0,0,0-2.018-7.617l.624-.219c.708-.249,1.243-.438,1.506-.521,4.107-1.3,6.162-3.193,6.1-5.643a1.189,1.189,0,0,0-1.186-1.131A1.159,1.159,0,0,0,162.4,42.43c.017.729-.543,2.135-4.485,3.378-.279.088-.84.284-1.58.546-.665.232-1.478.519-2.367.824h-.009a77.43,77.43,0,0,1-7.986,2.421,1.419,1.419,0,0,1-1.666-1.111,3.251,3.251,0,0,1-.09-2.171,4.014,4.014,0,0,0,.073-2.049,3.212,3.212,0,0,0-1.755-2.013,7.815,7.815,0,0,1,.678-.957,1.158,1.158,0,0,0-.724-1.886c-.3-.044-.627-.109-.9-.171.131-.232.276-.5.416-.795a3.683,3.683,0,0,0,.269-2.229c-.232-1.254-1.39-1.844-2.225-2.273a5.419,5.419,0,0,1-.677-.382,5.851,5.851,0,0,1-.5-.4,24.972,24.972,0,0,1,3.094-3.73l.279-.3a6.037,6.037,0,0,0,2.1-4.312,3.218,3.218,0,0,0-1.234-2.433,1.826,1.826,0,0,1-.788-1.52c0-1.874,1.6-6.1,2.122-7.49l.166-.44a15.729,15.729,0,0,1,3.3-5.41c2.145-2.272,5.164-3.214,8.109-3.892,12.123-2.8,17.39-.9,23.407,3.834a13.3,13.3,0,0,1,4.86,6.977,26.03,26.03,0,0,1,.9,7.348c-.058,4.151-1.782,6.48-3.606,8.948A22.321,22.321,0,0,0,178.865,35.082Z" transform="translate(-117.994 0)" fill="#fff"/><path d="M357.551,55.518a1.087,1.087,0,0,0,.191-.016,1.158,1.158,0,0,0,.952-1.332c-1.248-7.48-9.095-11.394-16.2-11.394a1.158,1.158,0,1,0,0,2.317c6.133,0,12.882,3.249,13.917,9.457a1.158,1.158,0,0,0,1.142.968" transform="translate(-294.996 -36.968)" fill="#fff"/><path d="M453.425,153.709a1.158,1.158,0,1,1-1.158,1.158,1.158,1.158,0,0,1,1.158-1.158" transform="translate(-390.87 -132.843)" fill="#fff"/></g></g></g></svg>