<svg xmlns="http://www.w3.org/2000/svg" xmlns:xlink="http://www.w3.org/1999/xlink" width="126" height="126" viewBox="0 0 126 126"><defs><clipPath id="a"><rect width="50.74" height="59.694" fill="#1b3f5e"/></clipPath></defs><g transform="translate(-1209 -855)"><circle cx="63" cy="63" r="63" transform="translate(1209 855)" fill="#bef7f8"/><g transform="translate(1247 888)"><g clip-path="url(#a)"><path d="M4.477,59.694H46.263a4.477,4.477,0,0,0,4.477-4.477V34.324a1.492,1.492,0,1,0-2.985,0V55.217a1.493,1.493,0,0,1-1.492,1.492H4.477a1.493,1.493,0,0,1-1.492-1.492V4.477A1.492,1.492,0,0,1,4.477,2.985H40.488a1.492,1.492,0,0,1,1.492,1.492V49.248a1.492,1.492,0,0,0,2.985,0V4.477A4.477,4.477,0,0,0,40.488,0H4.477A4.477,4.477,0,0,0,0,4.477v50.74A4.477,4.477,0,0,0,4.477,59.694Z" fill="#1b3f5e" fill-rule="evenodd"/><path d="M80.2,69.651H56.319v6.716H80.2ZM56.319,66.666a2.985,2.985,0,0,0-2.985,2.985v6.716a2.985,2.985,0,0,0,2.985,2.985H80.2a2.985,2.985,0,0,0,2.985-2.985V69.651A2.985,2.985,0,0,0,80.2,66.666Z" transform="translate(-45.872 -57.339)" fill="#1b3f5e" fill-rule="evenodd"/><path d="M53.333,182.824a1.493,1.493,0,0,1,1.492-1.492H81.688a1.492,1.492,0,0,1,0,2.985H54.825a1.492,1.492,0,0,1-1.492-1.492" transform="translate(-45.871 -155.962)" fill="#1b3f5e" fill-rule="evenodd"/><path d="M53.333,225.491A1.493,1.493,0,0,1,54.825,224H81.688a1.492,1.492,0,0,1,0,2.985H54.825a1.492,1.492,0,0,1-1.492-1.492" transform="translate(-45.871 -192.659)" fill="#1b3f5e" fill-rule="evenodd"/><path d="M53.333,268.158a1.493,1.493,0,0,1,1.492-1.492H81.688a1.492,1.492,0,0,1,0,2.985H54.825a1.492,1.492,0,0,1-1.492-1.492" transform="translate(-45.871 -229.357)" fill="#1b3f5e" fill-rule="evenodd"/><path d="M53.333,310.824a1.493,1.493,0,0,1,1.492-1.492H69.749a1.492,1.492,0,0,1,0,2.985H54.825a1.492,1.492,0,0,1-1.492-1.492" transform="translate(-45.871 -266.054)" fill="#1b3f5e" fill-rule="evenodd"/></g></g></g></svg>