<svg xmlns="http://www.w3.org/2000/svg" xmlns:xlink="http://www.w3.org/1999/xlink" width="125" height="125" viewBox="0 0 125 125"><defs><clipPath id="a"><rect width="60.434" height="60.607" fill="#fff"/></clipPath></defs><g transform="translate(-4986 11237)"><circle cx="62.5" cy="62.5" r="62.5" transform="translate(4986 -11237)" fill="#0273bc"/><g transform="translate(5013.75 -11206.264)"><g clip-path="url(#a)"><path d="M126.061,212.121V201.01a1.01,1.01,0,0,0-1.01-1.01h-4.04a1.01,1.01,0,0,0-1.01,1.01v11.111h2.02v-10.1h2.02v10.1Z" transform="translate(-104.848 -174.747)" fill="#fff"/><path d="M254.061,223.152V209.01a1.01,1.01,0,0,0-1.01-1.01h-4.04a1.01,1.01,0,0,0-1.01,1.01v14.142h2.02V210.02h2.02v13.131Z" transform="translate(-216.687 -181.737)" fill="#fff"/><path d="M190.061,195.192V177.01a1.01,1.01,0,0,0-1.01-1.01h-4.04a1.01,1.01,0,0,0-1.01,1.01v16.162h2.02V178.02h2.02v17.172Z" transform="translate(-160.767 -153.778)" fill="#fff"/><path d="M318.061,187.111v-10.1a1.01,1.01,0,0,0-1.01-1.01h-4.04a1.01,1.01,0,0,0-1.01,1.01v11.111h2.02v-10.1h2.02v9.091Z" transform="translate(-272.606 -153.778)" fill="#fff"/><path d="M382.061,144.162V129.01a1.01,1.01,0,0,0-1.01-1.01h-4.04a1.01,1.01,0,0,0-1.01,1.01v15.152h2.02V130.02h2.02v14.142Z" transform="translate(-328.525 -111.838)" fill="#fff"/><path d="M99.325,22.937a1.01,1.01,0,0,0,1.429,0l8.338-8.338,8.379,9.31a1.01,1.01,0,0,0,.724.334h.027a1.01,1.01,0,0,0,.714-.3L132.363,10.52v2.612a1.01,1.01,0,0,0,1.01,1.01h4.04a1.01,1.01,0,0,0,1.01-1.01V1.01A1.01,1.01,0,0,0,137.414,0H125.292a1.01,1.01,0,0,0-1.01,1.01v4.04a1.01,1.01,0,0,0,1.01,1.01H127.9L118.26,15.7,109.881,6.4a1.01,1.01,0,0,0-1.427-.075l-.039.036L96.295,18.478a1.01,1.01,0,0,0,0,1.429Zm9.767-14.4,8.379,9.31a1.01,1.01,0,0,0,1.427.075l.039-.036L131.057,5.765a1.01,1.01,0,0,0-.714-1.724H126.3V2.02h10.1v10.1h-2.02V8.081a1.01,1.01,0,0,0-1.725-.714l-14.4,14.4-8.379-9.31a1.01,1.01,0,0,0-.724-.334h-.027a1.011,1.011,0,0,0-.714.3l-8.377,8.377-1.6-1.6Z" transform="translate(-83.878)" fill="#fff"/><path d="M9.091,296.8v-2.02h3.03a1.01,1.01,0,0,0,1.01-1.01v-2.646a25.4,25.4,0,0,0,35.13-.751L59.3,279.331a3.867,3.867,0,0,0-4.724-6.051,3.936,3.936,0,0,0-6.463-.216l-.428.575a4.335,4.335,0,0,0-6.517,1.5q-.04.079-.076.16l-2.546,5.659a4.52,4.52,0,0,0-1.677-.322H24.661l-1.724-1.724a8.166,8.166,0,0,0-9.805-1.315v-1a1.01,1.01,0,0,0-1.01-1.01H9.091v-1.01a1.01,1.01,0,0,0-1.01-1.01H0v2.02H7.071v20.2H0v2.02H8.081a1.01,1.01,0,0,0,1.01-1.01m43.165-23.024a1.911,1.911,0,0,1,.774.889l-8.015,8.015a17.094,17.094,0,0,1-3.6,2.755l8.319-11.161a1.911,1.911,0,0,1,2.524-.5m-9.322,2.355A2.315,2.315,0,0,1,46,274.968l.085.041a2.319,2.319,0,0,1,.4.252l-5.686,7.628a4.569,4.569,0,0,0-.557-.759Zm-21.426,4.212,2.02,2.02a1.01,1.01,0,0,0,.714.3H36.869a2.525,2.525,0,0,1,0,5.051H24.243v2.02H36.869a4.533,4.533,0,0,0,3.328-1.454,19.08,19.08,0,0,0,6.247-4.167l8.816-8.816a1.847,1.847,0,0,1,2.612,2.612l-11.04,11.039a23.376,23.376,0,0,1-33.059,0l-.642-.642v-8.233a6.139,6.139,0,0,1,8.377.275m-10.4,12.417H9.091V277.606h2.02Z" transform="translate(0 -237.202)" fill="#fff"/></g></g></g></svg>