<svg xmlns="http://www.w3.org/2000/svg" xmlns:xlink="http://www.w3.org/1999/xlink" width="126" height="126" viewBox="0 0 126 126"><defs><clipPath id="a"><rect width="72" height="72" transform="translate(0 0.226)" fill="#1b3f5e"/></clipPath></defs><g transform="translate(-428 -2900)"><circle cx="63" cy="63" r="63" transform="translate(428 2900)" fill="#65bef8"/><g transform="translate(455 2928.494)"><g transform="translate(0 0.28)" clip-path="url(#a)"><path d="M37.422,179.19a3.332,3.332,0,0,0-4.708,0l-8.182,8.181a3.76,3.76,0,0,0-.9-1.446,2.879,2.879,0,0,0-4.066,0l-8.659,8.659a7.424,7.424,0,0,0-1.625,8.039L6.81,205.093a2.2,2.2,0,0,0-2.16.556L.642,209.658a2.2,2.2,0,0,0,0,3.1l12.027,12.027a2.2,2.2,0,0,0,3.1,0l4.009-4.009a2.2,2.2,0,0,0,.244-2.81l1.946-1.946a16.2,16.2,0,0,1,2.753-2.209l3.864-2.459a18.322,18.322,0,0,0,3.115-2.5l5.718-5.718a3.322,3.322,0,0,0-1.53-5.574,3.312,3.312,0,0,0-2.405-4.009,3.309,3.309,0,0,0-1.892-3.833l5.827-5.827a3.332,3.332,0,0,0,0-4.708m-1.5,3.207L25.658,192.66a1.061,1.061,0,1,0,1.5,1.5l2.245-2.245a1.207,1.207,0,0,1,1.707,1.707l-3.047,3.047a1.061,1.061,0,0,0,1.5,1.5l2.245-2.245a1.207,1.207,0,0,1,1.706,1.707l-2.886,2.887a1.061,1.061,0,1,0,1.5,1.5l2.085-2.085a1.207,1.207,0,0,1,1.707,1.707L30.2,207.358a16.189,16.189,0,0,1-2.753,2.209l-3.864,2.459a18.327,18.327,0,0,0-3.115,2.5l-1.921,1.921-5.985-5.985a1.061,1.061,0,1,0-1.5,1.5l7.216,7.217a.073.073,0,0,1,0,.1l-4.009,4.009a.073.073,0,0,1-.1,0L2.142,211.262a.073.073,0,0,1,0-.1l4.009-4.009a.073.073,0,0,1,.1,0l1.6,1.6a1.061,1.061,0,0,0,1.5-1.5l-.853-.853,1.894-1.894q.237.29.506.56a1.061,1.061,0,1,0,1.5-1.5,5.289,5.289,0,0,1,0-7.48l8.659-8.659a.754.754,0,0,1,1.065,0,1.663,1.663,0,0,1,0,2.348L18.6,193.3a1.061,1.061,0,1,0,1.5,1.5L34.214,180.69a1.207,1.207,0,0,1,1.707,1.707" transform="translate(0 -153.206)" fill="#1b3f5e"/><path d="M289.48,0a16.936,16.936,0,1,0,16.936,16.936A16.955,16.955,0,0,0,289.48,0m0,31.75a14.814,14.814,0,1,1,14.814-14.814A14.831,14.831,0,0,1,289.48,31.75" transform="translate(-233.992 -0.198)" fill="#1b3f5e"/><path d="M345.978,76.465,334.822,87.621l-4.353-4.353a1.061,1.061,0,1,0-1.5,1.5l5.1,5.1a1.061,1.061,0,0,0,1.5,0l11.906-11.906a1.061,1.061,0,1,0-1.5-1.5" transform="translate(-282.169 -65.58)" fill="#1b3f5e"/></g></g></g></svg>