<svg xmlns="http://www.w3.org/2000/svg" xmlns:xlink="http://www.w3.org/1999/xlink" width="125" height="125" viewBox="0 0 125 125"><defs><clipPath id="a"><rect width="69" height="63" transform="translate(0.471 -0.024)" fill="#fff"/></clipPath></defs><g transform="translate(-5335 11237)"><path d="M62.5,0A62.5,62.5,0,1,1,0,62.5,62.5,62.5,0,0,1,62.5,0Z" transform="translate(5335 -11237)" fill="#0273bc"/><g transform="translate(5362.529 -11205.976)" clip-path="url(#a)"><path d="M62.013,0H17.186a7.028,7.028,0,0,0-7.056,6.977L9.842,46.45H1.094A1.138,1.138,0,0,0,0,47.618V53.05a9.518,9.518,0,0,0,8.981,9.472v.065H46.73v-.074c.281.012.451.074.644.074H47.4a9.489,9.489,0,0,0,9.434-9.539V18.524h11.4a1.15,1.15,0,0,0,1.094-1.181V7.376A7.363,7.363,0,0,0,62.013,0M9.472,60.343H9.465a7.275,7.275,0,0,1-7.219-7.293V48.7H37.889V53.03a9.5,9.5,0,0,0,2.774,6.742,4.045,4.045,0,0,1,.591.57Zm45.117-7.295a7.249,7.249,0,0,1-7.19,7.295h-.023a7.294,7.294,0,0,1-7.241-7.312V47.618a1.163,1.163,0,0,0-1.123-1.168H12.087l.289-39.465a4.782,4.782,0,0,1,4.81-4.739H56.713a7.661,7.661,0,0,0-2.124,5.16ZM67.078,7.4v8.883H56.834V7.4A5.2,5.2,0,0,1,61.98,2.245h.031a5.117,5.117,0,0,1,5.067,5.142Z" transform="translate(-0.011 0.299)" fill="#fff"/><path d="M166.485,73.69l5.788,3.957a1.105,1.105,0,0,0,1.255,0l5.771-3.956a8.719,8.719,0,0,0,3.485-6.652V59.033a1.1,1.1,0,0,0-.6-1.008l-8.813-4.335a1.1,1.1,0,0,0-.981,0l-8.8,4.323a1.1,1.1,0,0,0-.6,1.008v8.019a8.72,8.72,0,0,0,3.488,6.65m-1.243-13.968,7.648-3.774,7.648,3.784v7.308a6.469,6.469,0,0,1-2.507,4.8l-5.155,3.525-5.134-3.525a6.466,6.466,0,0,1-2.5-4.8Z" transform="translate(-140.134 -45.757)" fill="#fff"/><path d="M204.127,122.511a1.121,1.121,0,0,0,.795.337h0a1.123,1.123,0,0,0,.794-.332l4.466-4.468a1.123,1.123,0,0,0-1.587-1.589l-3.668,3.668-1.466-1.481a1.123,1.123,0,1,0-1.6,1.582Z" transform="translate(-173.27 -99.534)" fill="#fff"/><path d="M161.066,248H134.123a1.123,1.123,0,0,0,0,2.245h26.944a1.123,1.123,0,0,0,0-2.245" transform="translate(-114.347 -212.899)" fill="#fff"/><path d="M161.066,285H134.123a1.123,1.123,0,1,0,0,2.245h26.944a1.123,1.123,0,0,0,0-2.245" transform="translate(-114.347 -244.707)" fill="#fff"/></g></g></svg>