<svg xmlns="http://www.w3.org/2000/svg" xmlns:xlink="http://www.w3.org/1999/xlink" width="133" height="133" viewBox="0 0 133 133"><defs><clipPath id="a"><rect width="58.934" height="58.01" fill="#fff"/></clipPath></defs><g transform="translate(-1100 -1065)"><circle cx="66.5" cy="66.5" r="66.5" transform="translate(1100 1065)" fill="#13c6cc"/><g transform="translate(1137.57 1097.374)"><g clip-path="url(#a)"><path d="M58.721,45.792,55.3,35.831A24.92,24.92,0,0,0,33.336,0,24.892,24.892,0,0,0,8.042,24.568,18.139,18.139,0,0,0,2.536,46.856L.178,53.717A3.242,3.242,0,0,0,3.232,58.01a3.263,3.263,0,0,0,1.062-.179l6.861-2.358a18.216,18.216,0,0,0,7.755,1.751h.029a18.112,18.112,0,0,0,14.646-7.448A24.971,24.971,0,0,0,43.87,47.259l9.962,3.423a3.879,3.879,0,0,0,1.261.212,3.853,3.853,0,0,0,3.628-5.1M18.938,53.717h-.023A14.671,14.671,0,0,1,12.1,52.026a1.755,1.755,0,0,0-1.39-.108L3.676,54.335,6.093,47.3a1.754,1.754,0,0,0-.108-1.39A14.626,14.626,0,0,1,8.368,28.952,24.989,24.989,0,0,0,29.2,49.507a14.588,14.588,0,0,1-10.261,4.21m36.384-6.434a.318.318,0,0,1-.351.081L44.307,43.7a1.754,1.754,0,0,0-1.39.108,21.426,21.426,0,0,1-9.95,2.47h-.033A21.47,21.47,0,0,1,11.55,25.241,21.386,21.386,0,0,1,33.281,3.511,21.391,21.391,0,0,1,51.848,34.878a1.754,1.754,0,0,0-.108,1.39L55.4,46.932a.318.318,0,0,1-.081.351" transform="translate(0 0)" fill="#fff"/><path d="M202.746,135.5h-20.9a1.754,1.754,0,0,0,0,3.508h20.9a1.754,1.754,0,1,0,0-3.508" transform="translate(-159.364 -119.904)" fill="#fff"/><path d="M202.746,198.172h-20.9a1.754,1.754,0,1,0,0,3.508h20.9a1.754,1.754,0,1,0,0-3.508" transform="translate(-159.364 -175.361)" fill="#fff"/><path d="M194.7,260.841H181.847a1.754,1.754,0,0,0,0,3.508H194.7a1.754,1.754,0,0,0,0-3.508" transform="translate(-159.363 -230.817)" fill="#fff"/></g></g></g></svg>