<svg xmlns="http://www.w3.org/2000/svg" xmlns:xlink="http://www.w3.org/1999/xlink" width="133" height="133" viewBox="0 0 133 133"><defs><clipPath id="a"><rect width="74" height="61" transform="translate(0.29 0.434)" fill="#fff"/></clipPath></defs><g transform="translate(-742 -1065)"><circle cx="66.5" cy="66.5" r="66.5" transform="translate(742 1065)" fill="#13c6cc"/><g transform="translate(771.71 1100.216)"><g transform="translate(0 0.351)" clip-path="url(#a)"><path d="M13.485,68.467A13.5,13.5,0,0,1,0,54.982V30.354A24.646,24.646,0,0,1,5.066,15.308,25.053,25.053,0,0,1,17.881,6.482a1.458,1.458,0,0,1,.818,2.8A22.064,22.064,0,0,0,2.916,30.354V54.982a10.57,10.57,0,0,0,20.39,3.91l.679-1.7A24.679,24.679,0,0,1,34.6,44.953,19.575,19.575,0,0,0,30.827,9.326a1.458,1.458,0,1,1,.887-2.778,22.491,22.491,0,0,1,4.335,40.935,21.751,21.751,0,0,0-9.356,10.783l-.679,1.7A13.418,13.418,0,0,1,13.485,68.467Z" transform="translate(0.005 -6.063)" fill="#fff"/><path d="M124.442,110.009a1.458,1.458,0,0,1-1.458-1.458,6.279,6.279,0,0,0-6.272-6.272,6.484,6.484,0,0,0-5.265,2.72,1.458,1.458,0,1,1-2.374-1.693,9.4,9.4,0,0,1,7.639-3.943,9.2,9.2,0,0,1,9.188,9.188,1.458,1.458,0,0,1-1.458,1.458" transform="translate(-92.934 -85.454)" fill="#fff"/><path d="M48.354,90.587A1.458,1.458,0,0,1,46.9,89.129V85.758a4.343,4.343,0,0,1,3.247-4.179,6.969,6.969,0,0,0,0-13.468A4.343,4.343,0,0,1,46.9,63.932,17.049,17.049,0,0,1,63.923,46.9,16.672,16.672,0,0,1,80.577,63.548a1.458,1.458,0,1,1-2.916,0A13.753,13.753,0,0,0,63.923,49.811,14.128,14.128,0,0,0,49.812,63.922a1.427,1.427,0,0,0,1.078,1.37,9.884,9.884,0,0,1,0,19.106,1.425,1.425,0,0,0-1.078,1.36v3.371A1.458,1.458,0,0,1,48.354,90.587Z" transform="translate(-40.054 -40.635)" fill="#fff"/><path d="M351.426,154.052a4.381,4.381,0,0,1-3.1-7.478,7.463,7.463,0,0,0,0-10.541,4.38,4.38,0,1,1,6.195-6.195,16.232,16.232,0,0,1,0,22.931A4.352,4.352,0,0,1,351.426,154.052Zm0-22.582a1.465,1.465,0,0,0-1.036,2.5,10.382,10.382,0,0,1,0,14.665,1.465,1.465,0,0,0,2.071,2.072,13.316,13.316,0,0,0,0-18.808A1.455,1.455,0,0,0,351.426,131.47Z" transform="translate(-296.446 -110.389)" fill="#fff"/><path d="M408.825,113.4a4.379,4.379,0,0,1-3.1-7.476,19.31,19.31,0,0,0,0-27.278,4.38,4.38,0,0,1,6.195-6.195,28.081,28.081,0,0,1,0,39.668A4.367,4.367,0,0,1,408.825,113.4Zm0-39.315a1.464,1.464,0,0,0-1.036,2.5,22.229,22.229,0,0,1,0,31.4,1.465,1.465,0,0,0,2.071,2.071,25.163,25.163,0,0,0,0-35.544,1.46,1.46,0,0,0-1.036-.428" transform="translate(-345.477 -61.372)" fill="#fff"/><path d="M161.46,2.916A1.459,1.459,0,0,1,160,1.458a1.458,1.458,0,1,1,2.489,1.031,1.469,1.469,0,0,1-1.031.427" transform="translate(-136.67 -0.577)" fill="#fff"/></g></g></g></svg>