<svg xmlns="http://www.w3.org/2000/svg" xmlns:xlink="http://www.w3.org/1999/xlink" width="126" height="126" viewBox="0 0 126 126"><defs><clipPath id="a"><rect width="65.374" height="67.721" fill="#1b3f5e"/></clipPath></defs><g transform="translate(-579 -855)"><circle cx="63" cy="63" r="63" transform="translate(579 855)" fill="#bef7f8"/><g transform="translate(609.313 884.417)"><g clip-path="url(#a)"><path d="M64.642,324.319a5.127,5.127,0,0,0-6.8-1.678l-11.3,5.8a5.121,5.121,0,0,0-3.742-1.623H35.1a1.865,1.865,0,0,1-.584-.045,3.6,3.6,0,0,1-.436-.38l-.074-.07c-6.187-5.828-11.421-5.459-17.38-3.112a4.117,4.117,0,0,1-1.962.429l-1.838,0a3.669,3.669,0,0,0-3.5-2.575H3.662A3.668,3.668,0,0,0,0,324.735v14.855a3.666,3.666,0,0,0,3.662,3.662H9.325a3.668,3.668,0,0,0,3.5-2.577h3.255a1.507,1.507,0,0,1,.606.09c.124.035.277.078.474.13l14.647,3.918c.645.175,1.236.347,1.808.513a18.321,18.321,0,0,0,5.073,1,11.1,11.1,0,0,0,6.308-2.27l.033-.023,18.06-12.861A5.092,5.092,0,0,0,64.642,324.319Zm-54.3,15.27a1.03,1.03,0,0,1-1.016,1.016H3.662a1.03,1.03,0,0,1-1.016-1.016V324.735a1.032,1.032,0,0,1,1.016-1.02H9.325a1.032,1.032,0,0,1,1.016,1.02Zm51.212-10.575L43.51,341.863c-3.745,2.494-5.332,2.032-9.158.921-.583-.169-1.186-.344-1.858-.527l-14.654-3.92c-.185-.049-.327-.089-.442-.121a3.8,3.8,0,0,0-1.32-.188H12.987V326.291h1.681l.108,0a6.5,6.5,0,0,0,2.817-.611c5.3-2.086,9.381-2.333,14.595,2.578l.073.069a3.342,3.342,0,0,0,2.835,1.146h7.7a2.495,2.495,0,0,1,0,4.989H30.318a1.323,1.323,0,1,0,0,2.645H42.8a5.135,5.135,0,0,0,5-6.327l11.256-5.779a2.37,2.37,0,1,1,2.5,4.02Z" transform="translate(0 -278.602)" fill="#1b3f5e"/><path d="M251.376,95.173A1.323,1.323,0,0,0,252.7,96.5H260a1.323,1.323,0,0,0,1.323-1.323V90.778h4.391a1.323,1.323,0,0,0,1.323-1.323v-7.3a1.323,1.323,0,0,0-1.323-1.323h-4.391V76.438A1.323,1.323,0,0,0,260,75.115h-7.3a1.323,1.323,0,0,0-1.323,1.323v4.391h-4.394a1.323,1.323,0,0,0-1.323,1.323v7.3a1.323,1.323,0,0,0,1.323,1.323h4.394Zm-3.072-7.04V83.474H252.7a1.323,1.323,0,0,0,1.323-1.323V77.76h4.659v4.391A1.323,1.323,0,0,0,260,83.474h4.391v4.659H260a1.323,1.323,0,0,0-1.323,1.323V93.85h-4.659V89.456a1.323,1.323,0,0,0-1.323-1.323Z" transform="translate(-213.166 -65.18)" fill="#1b3f5e"/><path d="M188.638,30.369a1.323,1.323,0,0,0,2.193-1.48,21.7,21.7,0,0,1-2.733-5.23,3.257,3.257,0,0,1-.157-1.307c0-.121,0-.25,0-.392V11.392c.007-.319.008-.587.008-.813,0-.147,0-.305,0-.429.107-.06.245-.134.374-.2.187-.1.418-.222.687-.372l14.951-6.8,14.952,6.8c.266.148.493.268.686.371.129.068.267.142.375.2,0,.122,0,.278,0,.422,0,.221,0,.5.008.82V21.96c0,.142,0,.272,0,.392a3.266,3.266,0,0,1-.159,1.311c-1.78,5.584-9.6,14.272-14.51,17.206a2.3,2.3,0,0,1-2.722,0,26.689,26.689,0,0,1-4.026-3.088A1.323,1.323,0,1,0,196.8,39.74a28.894,28.894,0,0,0,4.443,3.4,4.917,4.917,0,0,0,5.439,0c5.4-3.225,13.695-12.474,15.669-18.667a5.751,5.751,0,0,0,.285-2.149c0-.112,0-.231,0-.362V11.377c0-.01,0-.02,0-.03-.007-.307-.007-.563-.008-.78,0-1.711-.269-2.153-1.782-2.957-.191-.1-.418-.222-.686-.372-.032-.018-.064-.034-.1-.049L204.515.119a1.322,1.322,0,0,0-1.1,0L187.871,7.19c-.033.015-.066.032-.1.05-.269.15-.5.271-.687.373-1.51.8-1.777,1.246-1.78,2.961,0,.215,0,.47-.008.774,0,.01,0,.02,0,.03V21.96c0,.131,0,.251,0,.362a5.743,5.743,0,0,0,.283,2.143A23.938,23.938,0,0,0,188.638,30.369Z" transform="translate(-160.785 0)" fill="#1b3f5e"/><path d="M237.262,250.575a1.323,1.323,0,0,0,0,1.871l0,0a1.323,1.323,0,1,0,0-1.874Z" transform="translate(-205.543 -217.095)" fill="#1b3f5e"/></g></g></g></svg>