<svg xmlns="http://www.w3.org/2000/svg" xmlns:xlink="http://www.w3.org/1999/xlink" width="126" height="126" viewBox="0 0 126 126"><defs><clipPath id="a"><rect width="74" height="60" transform="translate(0 0.488)" fill="#1b3f5e"/></clipPath></defs><g transform="translate(-1048 -2900)"><circle cx="63" cy="63" r="63" transform="translate(1048 2900)" fill="#73f5f9"/><g transform="translate(1074 2934.354)"><g transform="translate(0 0.159)" clip-path="url(#a)"><path d="M73.5,46.767a1.093,1.093,0,0,0,1.093-1.093V9.834a3.282,3.282,0,0,0-3.278-3.278H70.224V5.463a3.282,3.282,0,0,0-3.278-3.278H39.483a3.265,3.265,0,0,0-2.185.837,3.265,3.265,0,0,0-2.185-.837h-9.98a1.093,1.093,0,1,0,0,2.185h9.98A1.094,1.094,0,0,1,36.2,5.463V8.3h-.51a1.093,1.093,0,0,0,0,2.185h.51v5.682h-.656a1.093,1.093,0,0,0,0,2.185H36.2v5.828h-.656a1.093,1.093,0,0,0,0,2.185H36.2V32.2h-.656a1.093,1.093,0,0,0,0,2.185H36.2v5.828h-.656a1.093,1.093,0,1,0,0,2.185H36.2v5.828h-.656a1.093,1.093,0,0,0,0,2.185H36.2v2.56a1.094,1.094,0,0,1-1.093,1.093H7.649A1.094,1.094,0,0,1,6.556,52.97V5.463A1.094,1.094,0,0,1,7.649,4.371h3.278v8.814a1.8,1.8,0,0,0,1.068,1.658,1.833,1.833,0,0,0,.759.167,1.807,1.807,0,0,0,1.191-.452l2.081-1.816,2.081,1.816a1.821,1.821,0,0,0,3.019-1.372V1.821A1.823,1.823,0,0,0,19.3,0H12.748a1.823,1.823,0,0,0-1.821,1.821v.364H7.649A3.282,3.282,0,0,0,4.371,5.463V6.556H3.278A3.282,3.282,0,0,0,0,9.834V53.688a6.928,6.928,0,0,0,6.92,6.92H34.383A4,4,0,0,0,37.3,59.347a4,4,0,0,0,2.914,1.261H67.674a6.928,6.928,0,0,0,6.92-6.92V50.774a1.093,1.093,0,1,0-2.185,0v2.914a4.74,4.74,0,0,1-4.735,4.735H40.211A1.823,1.823,0,0,1,38.39,56.6V56.06a3.261,3.261,0,0,0,1.093.188H66.946a3.282,3.282,0,0,0,3.278-3.278V8.742h1.093a1.094,1.094,0,0,1,1.093,1.093v35.84A1.093,1.093,0,0,0,73.5,46.767ZM13.112,2.185H18.94v10.2l-1.716-1.5a1.828,1.828,0,0,0-2.395,0l-1.716,1.5ZM34.383,58.423H6.92a4.74,4.74,0,0,1-4.735-4.735V9.834A1.094,1.094,0,0,1,3.278,8.742H4.371V52.97a3.282,3.282,0,0,0,3.278,3.278H35.112A3.264,3.264,0,0,0,36.2,56.06V56.6A1.823,1.823,0,0,1,34.383,58.423ZM68.038,52.97a1.094,1.094,0,0,1-1.093,1.093H39.483A1.094,1.094,0,0,1,38.39,52.97V50.41h.51a1.093,1.093,0,0,0,0-2.185h-.51V42.4h.51a1.093,1.093,0,0,0,0-2.185h-.51V34.383h.51a1.093,1.093,0,0,0,0-2.185h-.51V26.37h.51a1.093,1.093,0,0,0,0-2.185h-.51V18.357h.51a1.093,1.093,0,0,0,0-2.185h-.51V10.49h.656a1.093,1.093,0,0,0,0-2.185H38.39V5.463a1.094,1.094,0,0,1,1.093-1.093H66.946a1.094,1.094,0,0,1,1.093,1.093Z" transform="translate(0 -0.12)" fill="#1b3f5e"/><path d="M316.124,125.426a3.278,3.278,0,0,0,4.636,4.636l1.751-1.751a.364.364,0,0,1,.515,0l1.648,1.648a3.278,3.278,0,0,0,4.636-4.636l-1.648-1.648a.364.364,0,0,1,0-.515l1.648-1.648a3.278,3.278,0,0,0-4.636-4.636l-1.648,1.648a.364.364,0,0,1-.515,0l-1.751-1.751a3.278,3.278,0,0,0-4.636,4.636l1.751,1.751a.364.364,0,0,1,0,.515Zm3.3-3.812-1.751-1.751a1.093,1.093,0,0,1,1.545-1.545l1.751,1.751a2.553,2.553,0,0,0,3.606,0l1.648-1.648a1.093,1.093,0,0,1,1.545,1.545l-1.648,1.648a2.553,2.553,0,0,0,0,3.606l1.648,1.648a1.093,1.093,0,0,1-1.545,1.545l-1.648-1.648a2.553,2.553,0,0,0-3.606,0l-1.751,1.751a1.093,1.093,0,0,1-1.545-1.545l1.751-1.751A2.552,2.552,0,0,0,319.421,121.614Z" transform="translate(-269.248 -99.06)" fill="#1b3f5e"/><path d="M98.037,116.418a3.282,3.282,0,0,0-4.636,0l-6.439,6.439-2.112-2.112a3.278,3.278,0,0,0-4.636,4.636l4.43,4.43a3.282,3.282,0,0,0,4.636,0l8.757-8.757a3.282,3.282,0,0,0,0-4.636m-1.545,3.091-8.757,8.757a1.093,1.093,0,0,1-1.545,0l-4.43-4.43a1.093,1.093,0,1,1,1.545-1.545l2.37,2.369a1.821,1.821,0,0,0,2.576,0l6.7-6.7a1.093,1.093,0,1,1,1.545,1.545Z" transform="translate(-67.709 -98.757)" fill="#1b3f5e"/><path d="M106.255,247.093A1.093,1.093,0,0,0,105.162,246H90.593a1.093,1.093,0,1,0,0,2.185h14.569a1.093,1.093,0,0,0,1.093-1.093" transform="translate(-76.461 -210.279)" fill="#1b3f5e"/><path d="M110.593,276a1.093,1.093,0,1,0,0,2.185h8.742a1.093,1.093,0,1,0,0-2.185Z" transform="translate(-93.547 -235.909)" fill="#1b3f5e"/><path d="M325.162,246H310.593a1.093,1.093,0,1,0,0,2.185h14.569a1.093,1.093,0,1,0,0-2.185" transform="translate(-264.408 -210.279)" fill="#1b3f5e"/><path d="M339.334,276h-8.742a1.093,1.093,0,1,0,0,2.185h8.742a1.093,1.093,0,1,0,0-2.185" transform="translate(-281.494 -235.909)" fill="#1b3f5e"/></g></g></g></svg>