<svg xmlns="http://www.w3.org/2000/svg" xmlns:xlink="http://www.w3.org/1999/xlink" width="124.51" height="124.51" viewBox="0 0 124.51 124.51"><defs><clipPath id="a"><rect width="64.882" height="64.885" fill="#fff"/></clipPath></defs><g transform="translate(-527.99 -3177.49)"><path d="M62.255,0A62.255,62.255,0,1,1,0,62.255,62.255,62.255,0,0,1,62.255,0Z" transform="translate(527.99 3177.49)" fill="#0273bc"/><g transform="translate(557.616 3207.303)"><g clip-path="url(#a)"><path d="M463.287,351.2h-4.348a1.267,1.267,0,0,1,0-2.534h4.348a1.267,1.267,0,1,1,0,2.534" transform="translate(-399.672 -304.481)" fill="#fff"/><path d="M447.558,298.609a1.268,1.268,0,0,1-.445-2.454l3.274-1.227a1.267,1.267,0,0,1,.889,2.373L448,298.528A1.263,1.263,0,0,1,447.558,298.609Z" transform="translate(-389.733 -257.482)" fill="#fff"/><path d="M450.831,396.56a1.265,1.265,0,0,1-.444-.081l-3.274-1.227a1.267,1.267,0,0,1,.889-2.373l3.274,1.227a1.268,1.268,0,0,1-.445,2.454" transform="translate(-389.733 -343.02)" fill="#fff"/><path d="M53.565,29a16.622,16.622,0,0,0-11.1-29H30.693V0A30.483,30.483,0,0,0,13.6,5.227a1.267,1.267,0,1,0,1.416,2.1A27.958,27.958,0,0,1,30.694,2.537a28.419,28.419,0,0,1,5.016.445,13.083,13.083,0,0,1,9.281,6.763,12.822,12.822,0,0,1,.45,11.246A23.492,23.492,0,0,1,32.314,33.469a13.514,13.514,0,0,0-8.705,13.483h0c0,.01,0,.02,0,.03a6.6,6.6,0,0,1-3.555,6.387,6.155,6.155,0,0,1-6.873-.619A28.12,28.12,0,0,1,7.327,15.014a1.267,1.267,0,1,0-2.1-1.417,30.654,30.654,0,0,0,6.38,41.136A8.845,8.845,0,0,0,15,56.411l-2.743,6.728a1.267,1.267,0,1,0,2.347.957l3.039-7.454a8.994,8.994,0,0,0,3.593-1.031,9.1,9.1,0,0,0,4.9-8.8q0-.01,0-.019a10.92,10.92,0,0,1,7.075-10.952,25.747,25.747,0,0,0,9.132-5.915,25.824,25.824,0,0,0,5.417-7.915,15.5,15.5,0,0,0,.868-2.57,25.348,25.348,0,0,1,.543,5.194v1.939a1.269,1.269,0,0,0,.21.7l5.093,7.711-4.194,2.88a1.267,1.267,0,0,0-.55,1.045v3.737l-4.039,1.828a1.267,1.267,0,0,0,.073,2.34l3.965,1.5v2.736a3.078,3.078,0,0,1-3.075,3.075H34.426a1.267,1.267,0,0,0,0,2.534h3.168l-2.519,6.5a1.267,1.267,0,1,0,2.363.916l2.874-7.417h6.344a5.616,5.616,0,0,0,5.609-5.609V47.439a1.267,1.267,0,0,0-.818-1.184h0l-1.93-.732,1.9-.861a1.266,1.266,0,0,0,.845-1.194V39.573l3.644-2.5a2.552,2.552,0,0,0,.681-3.495ZM52.149,26.86l-.442-.669V24.633a28,28,0,0,0-3.259-13.082,15.76,15.76,0,0,0-6.882-9.017h.9A14.088,14.088,0,0,1,52.149,26.86Z" transform="translate(0)" fill="#fff"/><path d="M69.4,70.69a1.268,1.268,0,1,1,.9-.371,1.274,1.274,0,0,1-.9.371" transform="translate(-59.501 -59.519)" fill="#fff"/></g></g></g></svg>