<svg xmlns="http://www.w3.org/2000/svg" xmlns:xlink="http://www.w3.org/1999/xlink" width="133" height="133" viewBox="0 0 133 133"><defs><clipPath id="a"><rect width="74.759" height="75.8" fill="#fff"/></clipPath></defs><g transform="translate(-7218 10649)"><path d="M66.5,0A66.5,66.5,0,1,1,0,66.5,66.5,66.5,0,0,1,66.5,0Z" transform="translate(7218 -10649)" fill="#13c6cc"/><g transform="translate(7247.12 -10620.4)"><g clip-path="url(#a)"><path d="M123.571,37.43H111.978a1.11,1.11,0,0,0,0,2.221h11.592a1.11,1.11,0,1,0,0-2.221" transform="translate(-94.454 -31.889)" fill="#fff"/><path d="M50.516,39.651h3.379a1.11,1.11,0,0,0,0-2.221H50.516a1.11,1.11,0,0,0,0,2.221" transform="translate(-42.092 -31.889)" fill="#fff"/><path d="M50.516,75.6H62.109a1.11,1.11,0,1,0,0-2.221H50.516a1.11,1.11,0,0,0,0,2.221" transform="translate(-42.092 -62.52)" fill="#fff"/><path d="M170.838,73.384h-3.379a1.11,1.11,0,1,0,0,2.221h3.379a1.11,1.11,0,0,0,0-2.221" transform="translate(-141.722 -62.52)" fill="#fff"/><path d="M68.212,24.11a5.279,5.279,0,0,0-5.151,4.163H57a11.477,11.477,0,0,0-2.538-6.141L62.084,14.5A7.458,7.458,0,0,0,72.574,3.9a7.461,7.461,0,0,0-11.84,8.815l-.022.02-7.826,7.833A11.534,11.534,0,0,0,51.344,19.5a11.4,11.4,0,0,0-12.936,1.069l-3.517-3.52A3.723,3.723,0,0,0,35.5,15V3.744A3.748,3.748,0,0,0,31.756,0H6.557A3.747,3.747,0,0,0,2.815,3.744V15a3.747,3.747,0,0,0,3.742,3.744h8.751a1.11,1.11,0,0,0,0-2.221H6.557A1.524,1.524,0,0,1,5.036,15V3.744A1.524,1.524,0,0,1,6.557,2.221h25.2a1.524,1.524,0,0,1,1.521,1.524V15a1.524,1.524,0,0,1-1.521,1.524H20.437a1.11,1.11,0,0,0,0,2.221h11.32a3.718,3.718,0,0,0,1.417-.28l3.668,3.671a11.424,11.424,0,0,0-2.4,9.354L21.136,39.186l0,0A11.947,11.947,0,0,0,5.976,36.493a11.964,11.964,0,1,0,16.416,4.532l12.691-7.337a11.324,11.324,0,0,0,6.5,6.359V50.86a9.588,9.588,0,0,1-.071,1.266c-2.259-3.272-4.34-5.689-8.338-4.994a3.421,3.421,0,0,0-2.722,2.075,3.592,3.592,0,0,0,.673,3.5l9.332,13.7a10.274,10.274,0,0,1,2.087,6.82A2.577,2.577,0,0,0,45.12,75.8H62.614a2.577,2.577,0,0,0,2.575-2.572V68.7a5.871,5.871,0,0,1,.819-3.243,11.826,11.826,0,0,0,1.407-4.722,1.136,1.136,0,0,0,.006-.119v-3.8a1.11,1.11,0,0,0-2.221,0v3.742a9.611,9.611,0,0,1-1.168,3.886A8.041,8.041,0,0,0,62.968,68.7v4.529a.358.358,0,0,1-.355.352H45.12a.358.358,0,0,1-.354-.352,12.439,12.439,0,0,0-2.472-8.069L32.943,51.428c-.013-.019-.027-.038-.041-.056a1.471,1.471,0,0,1-.377-1.366,1.272,1.272,0,0,1,1.033-.686c2.563-.446,3.936.879,6.231,4.219.016.023.032.045.049.067.838,1.043,1.676,1.426,2.491,1.139,1.02-.359,1.475-1.557,1.475-3.885V29.645a1.85,1.85,0,1,1,3.684,0V48.793a1.11,1.11,0,1,0,2.221,0V39.908a1.809,1.809,0,0,1,1.842-2.015,2.009,2.009,0,0,1,.623.1q.05.021.1.038a1.837,1.837,0,0,1,1.118,1.879V50.276a1.11,1.11,0,0,0,2.221,0V42.425a1.85,1.85,0,1,1,3.684,0v9.335a1.11,1.11,0,0,0,2.221,0V44.941a1.808,1.808,0,0,1,1.839-2.017,1.859,1.859,0,0,1,1.268.48,2.018,2.018,0,0,1,.573,1.537v6.743a1.11,1.11,0,0,0,2.221,0V44.941A4.016,4.016,0,0,0,63.359,40.7a4.174,4.174,0,0,0-1.985.5,3.964,3.964,0,0,0-3.917-3.015,4.181,4.181,0,0,0-1.988.5,3.932,3.932,0,0,0-1.119-1.932A11.394,11.394,0,0,0,57,30.494h6.063a5.268,5.268,0,1,0,5.151-6.384ZM63.6,5.467h0A5.238,5.238,0,0,1,71,12.879a5.238,5.238,0,0,1-7.4-7.413M16.822,55.3h0a9.724,9.724,0,0,1-13.3-3.568,9.738,9.738,0,1,1,13.3,3.568ZM54.83,29.4a9.18,9.18,0,0,1-2.547,6.335,4.2,4.2,0,0,0-2.574.361V29.645a4.066,4.066,0,1,0-8.126,0v7.983a9.184,9.184,0,1,1,13.247-8.271c0,.009,0,.018,0,.027S54.83,29.4,54.83,29.4Zm13.382,3.031a3.051,3.051,0,1,1,3.045-3.049,3.052,3.052,0,0,1-3.045,3.049" transform="translate(0)" fill="#fff"/><path d="M49.85,278.67a5.627,5.627,0,0,0-2.911,10.871,5.591,5.591,0,0,0,4.268-.563h0A5.63,5.63,0,0,0,49.85,278.67Zm.247,8.385A3.409,3.409,0,1,1,51.34,282.4a3.381,3.381,0,0,1-1.244,4.651" transform="translate(-36.44 -237.249)" fill="#fff"/></g></g></g></svg>