<svg xmlns="http://www.w3.org/2000/svg" width="84.549" height="47.39" viewBox="0 0 84.549 47.39"><g transform="translate(-179.477 -4946)"><g transform="translate(179.477 4946)"><g transform="translate(0 10.986)"><path d="M418.637,119.91a2.214,2.214,0,1,1-2.213-2.116A2.166,2.166,0,0,1,418.637,119.91Z" transform="translate(-414.214 -117.794)" fill="#13c6cc"/><path d="M418.637,119.91a2.214,2.214,0,1,1-2.213-2.116A2.166,2.166,0,0,1,418.637,119.91Z" transform="translate(-364.136 -117.794)" fill="#13c6cc"/><path d="M427.083,119.91a2.213,2.213,0,1,1-2.21-2.116A2.165,2.165,0,0,1,427.083,119.91Z" transform="translate(-412.645 -117.794)" fill="#13c6cc"/><path d="M427.083,119.91a2.213,2.213,0,1,1-2.21-2.116A2.165,2.165,0,0,1,427.083,119.91Z" transform="translate(-362.565 -117.794)" fill="#13c6cc"/><path d="M435.529,119.91a2.214,2.214,0,1,1-2.21-2.116A2.166,2.166,0,0,1,435.529,119.91Z" transform="translate(-411.075 -117.794)" fill="#13c6cc"/><path d="M435.529,119.91a2.214,2.214,0,1,1-2.21-2.116A2.166,2.166,0,0,1,435.529,119.91Z" transform="translate(-360.996 -117.794)" fill="#13c6cc"/><path d="M443.976,119.91a2.214,2.214,0,1,1-2.213-2.116A2.166,2.166,0,0,1,443.976,119.91Z" transform="translate(-409.506 -117.794)" fill="#13c6cc"/><path d="M443.976,119.91a2.214,2.214,0,1,1-2.213-2.116A2.166,2.166,0,0,1,443.976,119.91Z" transform="translate(-359.427 -117.794)" fill="#13c6cc"/><path d="M452.422,119.91a2.214,2.214,0,1,1-2.21-2.116A2.166,2.166,0,0,1,452.422,119.91Z" transform="translate(-407.936 -117.794)" fill="#13c6cc"/></g><g transform="translate(0 21.975)"><ellipse cx="2.211" cy="2.115" rx="2.211" ry="2.115" transform="translate(0 0.001)" fill="#13c6cc"/><ellipse cx="2.211" cy="2.115" rx="2.211" ry="2.115" transform="translate(50.079 0.001)" fill="#13c6cc"/><path d="M427.083,127.418a2.213,2.213,0,1,1-2.21-2.116A2.164,2.164,0,0,1,427.083,127.418Z" transform="translate(-412.645 -125.302)" fill="#13c6cc"/><path d="M427.083,127.418a2.213,2.213,0,1,1-2.21-2.116A2.164,2.164,0,0,1,427.083,127.418Z" transform="translate(-362.565 -125.302)" fill="#13c6cc"/><ellipse cx="2.211" cy="2.115" rx="2.211" ry="2.115" transform="translate(20.031 0.001)" fill="#13c6cc"/><ellipse cx="2.211" cy="2.115" rx="2.211" ry="2.115" transform="translate(70.11 0.001)" fill="#13c6cc"/><path d="M443.976,127.418a2.213,2.213,0,1,1-2.213-2.116A2.164,2.164,0,0,1,443.976,127.418Z" transform="translate(-409.506 -125.302)" fill="#13c6cc"/><path d="M443.976,127.418a2.213,2.213,0,1,1-2.213-2.116A2.164,2.164,0,0,1,443.976,127.418Z" transform="translate(-359.427 -125.302)" fill="#13c6cc"/><path d="M452.422,127.418a2.214,2.214,0,1,1-2.21-2.116A2.164,2.164,0,0,1,452.422,127.418Z" transform="translate(-407.936 -125.302)" fill="#13c6cc"/></g><g transform="translate(0 0)"><ellipse cx="2.211" cy="2.115" rx="2.211" ry="2.115" transform="translate(0 0.001)" fill="#13c6cc"/><ellipse cx="2.211" cy="2.115" rx="2.211" ry="2.115" transform="translate(50.079 0.001)" fill="#13c6cc"/><path d="M427.083,134.926a2.213,2.213,0,1,1-2.21-2.116A2.164,2.164,0,0,1,427.083,134.926Z" transform="translate(-412.645 -132.81)" fill="#13c6cc"/><path d="M427.083,134.926a2.213,2.213,0,1,1-2.21-2.116A2.164,2.164,0,0,1,427.083,134.926Z" transform="translate(-362.565 -132.81)" fill="#13c6cc"/><ellipse cx="2.211" cy="2.115" rx="2.211" ry="2.115" transform="translate(20.031 0.001)" fill="#13c6cc"/><ellipse cx="2.211" cy="2.115" rx="2.211" ry="2.115" transform="translate(70.11 0.001)" fill="#13c6cc"/><path d="M443.976,134.926a2.214,2.214,0,1,1-2.213-2.116A2.164,2.164,0,0,1,443.976,134.926Z" transform="translate(-409.506 -132.81)" fill="#13c6cc"/><path d="M443.976,134.926a2.214,2.214,0,1,1-2.213-2.116A2.164,2.164,0,0,1,443.976,134.926Z" transform="translate(-359.427 -132.81)" fill="#13c6cc"/><path d="M452.422,134.926a2.214,2.214,0,1,1-2.21-2.116A2.164,2.164,0,0,1,452.422,134.926Z" transform="translate(-407.936 -132.81)" fill="#13c6cc"/></g><g transform="translate(0 32.174)"><g transform="translate(0 0)"><path d="M418.637,104.893a2.214,2.214,0,1,1-2.213-2.114A2.165,2.165,0,0,1,418.637,104.893Z" transform="translate(-414.214 -102.779)" fill="#13c6cc"/><path d="M418.637,104.893a2.214,2.214,0,1,1-2.213-2.114A2.165,2.165,0,0,1,418.637,104.893Z" transform="translate(-364.136 -102.779)" fill="#13c6cc"/><path d="M427.083,104.893a2.214,2.214,0,1,1-2.21-2.114A2.164,2.164,0,0,1,427.083,104.893Z" transform="translate(-412.645 -102.779)" fill="#13c6cc"/><path d="M427.083,104.893a2.214,2.214,0,1,1-2.21-2.114A2.164,2.164,0,0,1,427.083,104.893Z" transform="translate(-362.565 -102.779)" fill="#13c6cc"/><path d="M435.529,104.893a2.214,2.214,0,1,1-2.21-2.114A2.164,2.164,0,0,1,435.529,104.893Z" transform="translate(-411.075 -102.779)" fill="#13c6cc"/><path d="M435.529,104.893a2.214,2.214,0,1,1-2.21-2.114A2.164,2.164,0,0,1,435.529,104.893Z" transform="translate(-360.996 -102.779)" fill="#13c6cc"/><path d="M443.976,104.893a2.214,2.214,0,1,1-2.213-2.114A2.165,2.165,0,0,1,443.976,104.893Z" transform="translate(-409.506 -102.779)" fill="#13c6cc"/><path d="M443.976,104.893a2.214,2.214,0,1,1-2.213-2.114A2.165,2.165,0,0,1,443.976,104.893Z" transform="translate(-359.427 -102.779)" fill="#13c6cc"/><path d="M452.422,104.893a2.214,2.214,0,1,1-2.21-2.114A2.164,2.164,0,0,1,452.422,104.893Z" transform="translate(-407.936 -102.779)" fill="#13c6cc"/></g><g transform="translate(0 10.986)"><ellipse cx="2.211" cy="2.115" rx="2.211" ry="2.115" transform="translate(0 0.001)" fill="#13c6cc"/><ellipse cx="2.211" cy="2.115" rx="2.211" ry="2.115" transform="translate(50.079 0.001)" fill="#13c6cc"/><path d="M427.083,112.4a2.214,2.214,0,1,1-2.21-2.114A2.165,2.165,0,0,1,427.083,112.4Z" transform="translate(-412.645 -110.287)" fill="#13c6cc"/><path d="M427.083,112.4a2.214,2.214,0,1,1-2.21-2.114A2.165,2.165,0,0,1,427.083,112.4Z" transform="translate(-362.565 -110.287)" fill="#13c6cc"/><ellipse cx="2.211" cy="2.115" rx="2.211" ry="2.115" transform="translate(20.031 0.001)" fill="#13c6cc"/><ellipse cx="2.211" cy="2.115" rx="2.211" ry="2.115" transform="translate(70.11 0.001)" fill="#13c6cc"/><path d="M443.976,112.4a2.214,2.214,0,1,1-2.213-2.114A2.166,2.166,0,0,1,443.976,112.4Z" transform="translate(-409.506 -110.287)" fill="#13c6cc"/><path d="M443.976,112.4a2.214,2.214,0,1,1-2.213-2.114A2.166,2.166,0,0,1,443.976,112.4Z" transform="translate(-359.427 -110.287)" fill="#13c6cc"/><path d="M452.422,112.4a2.214,2.214,0,1,1-2.21-2.114A2.166,2.166,0,0,1,452.422,112.4Z" transform="translate(-407.936 -110.287)" fill="#13c6cc"/></g></g></g></g></svg>