<svg xmlns="http://www.w3.org/2000/svg" xmlns:xlink="http://www.w3.org/1999/xlink" width="78.932" height="102.44" viewBox="0 0 78.932 102.44"><defs><clipPath id="a"><rect width="78.932" height="102.44" fill="#fff"/></clipPath></defs><g clip-path="url(#a)"><path d="M73.111,3.1h-18.6V1.508A1.507,1.507,0,0,0,53.005,0H25.925a1.508,1.508,0,0,0-1.508,1.508V3.1H5.817A5.825,5.825,0,0,0,0,8.918v87.7a5.825,5.825,0,0,0,5.818,5.818h67.3a5.825,5.825,0,0,0,5.818-5.818V8.918A5.825,5.825,0,0,0,73.111,3.1M66.483,89.995H12.446V15.547H66.483ZM27.433,3.016H51.5v9.515H27.433Zm48.48,93.606a2.806,2.806,0,0,1-2.8,2.8H5.815a2.806,2.806,0,0,1-2.8-2.8V8.918a2.8,2.8,0,0,1,2.8-2.8h18.6v6.414H10.938A1.507,1.507,0,0,0,9.43,14.037V91.5a1.507,1.507,0,0,0,1.506,1.508H67.991A1.507,1.507,0,0,0,69.5,91.5V14.039a1.507,1.507,0,0,0-1.506-1.508H54.512V6.117h18.6a2.8,2.8,0,0,1,2.8,2.8Z" fill="#fff"/><path d="M144.948,32.1h14.113a1.508,1.508,0,1,0,0-3.016H144.948a1.508,1.508,0,1,0,0,3.016" transform="translate(-112.541 -22.819)" fill="#fff"/><path d="M180.528,376.168h9.154a1.508,1.508,0,1,0,0-3.016h-9.154a1.508,1.508,0,1,0,0,3.016" transform="translate(-140.456 -292.769)" fill="#fff"/><path d="M180.528,341.812h18.308a1.508,1.508,0,0,0,0-3.016H180.528a1.508,1.508,0,0,0,0,3.016" transform="translate(-140.456 -265.814)" fill="#fff"/><path d="M92.8,348.772a1.507,1.507,0,0,0,2.131,0h0l7.4-7.4a1.507,1.507,0,0,0-2.132-2.132l-6.334,6.334-2.9-2.9a1.508,1.508,0,1,0-2.133,2.133Z" transform="translate(-69.349 -265.816)" fill="#fff"/><path d="M180.528,140.16h9.154a1.508,1.508,0,1,0,0-3.016h-9.154a1.508,1.508,0,0,0,0,3.016" transform="translate(-140.456 -107.601)" fill="#fff"/><path d="M180.528,105.8h18.308a1.508,1.508,0,0,0,0-3.016H180.528a1.508,1.508,0,0,0,0,3.016" transform="translate(-140.456 -80.646)" fill="#fff"/><path d="M92.8,112.764a1.507,1.507,0,0,0,2.131,0h0l7.4-7.4a1.507,1.507,0,0,0-2.132-2.132l-6.334,6.334-2.9-2.9a1.508,1.508,0,1,0-2.133,2.133Z" transform="translate(-69.349 -80.648)" fill="#fff"/><path d="M180.528,218.828h9.154a1.508,1.508,0,1,0,0-3.016h-9.154a1.508,1.508,0,0,0,0,3.016" transform="translate(-140.456 -169.323)" fill="#fff"/><path d="M180.528,184.476h18.308a1.508,1.508,0,0,0,0-3.016H180.528a1.508,1.508,0,0,0,0,3.016" transform="translate(-140.456 -142.371)" fill="#fff"/><path d="M92.8,191.448a1.507,1.507,0,0,0,2.131,0h0l7.4-7.4a1.507,1.507,0,1,0-2.132-2.132l-6.334,6.333-2.9-2.9a1.508,1.508,0,0,0-2.133,2.133Z" transform="translate(-69.349 -142.382)" fill="#fff"/><path d="M180.528,297.5h9.154a1.508,1.508,0,1,0,0-3.016h-9.154a1.508,1.508,0,0,0,0,3.016" transform="translate(-140.456 -231.047)" fill="#fff"/><path d="M180.528,263.144h18.308a1.508,1.508,0,0,0,0-3.016H180.528a1.508,1.508,0,0,0,0,3.016" transform="translate(-140.456 -204.092)" fill="#fff"/><path d="M92.8,270.1a1.507,1.507,0,0,0,2.131,0h0l7.4-7.4a1.508,1.508,0,1,0-2.132-2.133L93.869,266.9l-2.9-2.9a1.508,1.508,0,1,0-2.133,2.133Z" transform="translate(-69.349 -204.089)" fill="#fff"/></g></svg>